<svg xmlns="http://www.w3.org/2000/svg" width="415.304" height="61"><defs><style>.a{fill:#140902}</style></defs><path class="a" d="M415.304 58.639a1.7 1.7 0 0 0-.962.29c-.534.233-1.018.8-1.739.433l.064.206a2.672 2.672 0 0 1-.559.242c-.222.042-.463-.023-.685.019a2.768 2.768 0 0 0-.564.235l.038.149h-1.769c-.216 0-.472-.069-.548.27-.014.061-.211.116-.325.116q-4.112.009-8.223 0l.042-.137a1.98 1.98 0 0 0-.581-.245c-.49-.036-.986.011-1.476-.023a1.865 1.865 0 0 1-.554-.234l.04-.149c-.508 0-1.016.017-1.523-.01a.771.771 0 0 1-.442-.271c-.474-.325-1.181.241-1.646-.5-.415-.21-1.108.331-1.57-.4h-.55c-.1 0-.217.027-.291-.017-.343-.206-.673-.434-1.008-.653-.063-.041-.131-.113-.193-.11-1.04.052-1.771-.668-2.623-1.068a25.366 25.366 0 0 1-2.477-1.383 5.489 5.489 0 0 1-.869-.793c-.283-.273-.507-.657-.841-.818-1.421-.689-1.922-2.247-3.1-3.18a7.881 7.881 0 0 1-1.334-2.013c-.282-.436-.592-.855-.858-1.3a8.7 8.7 0 0 0-.714-1.288c-.429-.491-.313-1.136-.631-1.674-.255-.431-.706-.9-.538-1.528.019-.073.006-.221-.024-.231-.574-.178-.276-.662-.377-1.006-.042-.14-.2-.245-.383-.449a6.1 6.1 0 0 0-.007-.755c-.026-.243.2-.622-.3-.674-.037 0-.073-.2-.076-.315-.009-.376 0-.753 0-1.129l-.13.036a1.779 1.779 0 0 1-.256-.581c-.031-.735-.012-1.473-.012-2.211l-.127.036c-.089-.195-.255-.39-.256-.585q-.023-4.673 0-9.346c0-.141.167-.278.241-.425a.966.966 0 0 0 .134-.373c.016-.524.005-1.049.011-1.573 0-.113 0-.311.041-.324.605-.176.279-.664.342-1.01.043-.238 0-.491.023-.736a.818.818 0 0 1 .127-.289 2 2 0 0 0 .242-.439c.068-.3-.092-.664.338-.829.06-.023.052-.238.064-.366.027-.3-.127-.67.328-.81.045-.013.055-.174.064-.269a2.1 2.1 0 0 1 .3-.978c.228-.388.684-.845.5-1.439a.464.464 0 0 1 .073-.311c.229-.411.471-.814.708-1.221.089-.153.169-.311.264-.459.293-.46.594-.917.888-1.376a6.1 6.1 0 0 0 .5-.816c.389-.9 1.3-1.4 1.746-2.2.748-1.348 2.056-2.136 2.966-3.3.765-.137 1.1-.864 1.681-1.229 1.019-.639 2.109-1.165 3.171-1.737a21.379 21.379 0 0 1 1.919-1c.563-.231 1.046-.791 1.78-.457l.095-.439h1.494l.082-.407c.311 0 .62.007.928 0 .28-.009.66.144.644-.39h1.938V0h11.427v.385c1.082.047 2.156-.181 3.15.608 0 .448.005 1.068 0 1.688 0 .123-.027.317-.1.356-.456.228-.245.633-.279.965-.027.259 0 .524-.016.786-.006.1-.061.286-.108.291-.365.039-.27.3-.274.513-.007.377.006.755-.011 1.131-.005.116-.069.321-.125.328-.338.04-.255.279-.258.476-.006.377 0 .755-.006 1.131 0 .111-.019.307-.065.319-.517.128-.3.535-.318.831-.028.408 0 .82-.012 1.23 0 .11-.028.311-.067.316-.5.079-.289.463-.316.727a4.059 4.059 0 0 1-.023.782 1.871 1.871 0 0 1-.466.755c-.238.227-.274-.078-.374-.216-.031-.043-.154-.023-.234-.023a6.226 6.226 0 0 1-.885-.009 1.737 1.737 0 0 1-.5-.257l.043-.125c-.491 0-.984.023-1.473-.012a1.781 1.781 0 0 1-.55-.244l.044-.115h-5.632c-.567.623-1.212.218-1.7.4-.081.12-.148.328-.241.341a2.282 2.282 0 0 0-1.265.358 27.7 27.7 0 0 1-2.441 1.383c-.561.344-1.058.79-1.589 1.183a13.873 13.873 0 0 0-2.348 2.742.615.615 0 0 0-.058.134c-.18.4-.375.788-.538 1.192-.353.88-1.115 1.594-1.068 2.635 0 .046-.014.125-.041.135-.6.226-.243.738-.336 1.113-.043.17-.039.491-.091.5-.459.064-.271.4-.3.64-.039.286.038.7-.123.836-.415.36-.231.782-.266 1.178-.028.326 0 .656-.014.984-.006.115-.071.318-.125.324-.342.036-.258.281-.258.475 0 1.017-.014 2.034.009 3.049a1.755 1.755 0 0 0 .235.568l.149-.041v2.606l.447.153a2.957 2.957 0 0 0 .407 2.151c.13.123.314.22.311.312a3.477 3.477 0 0 0 .332 1.276 12.85 12.85 0 0 0 1.963 2.943 9.455 9.455 0 0 0 3.512 2.834c.26.135.529.252.8.375.636.295 1.184.851 1.869.662.512.672 1.2.215 1.695.449.088.124.194.307.307.311.7.026 1.4.013 2.1.013v-5.524h-5.101v-8.2c0-.144-.05-.409-.1-.415-.371-.045-.279-.324-.282-.526-.011-1.2-.005-2.394-.005-3.591v-.64h9.417l.056-.353h9.054v7.838h.376ZM145.002 61v-.394c-.319 0-.627.02-.932-.006-.254-.021-.612.168-.7-.319-.011-.061-.454-.024-.688-.075a.986.986 0 0 1-.5-.31c-.782.1-1.34-.429-1.976-.735s-1.254-.608-1.881-.911a1.384 1.384 0 0 1-.308-.143c-.942-.793-1.895-1.571-2.807-2.4a7.8 7.8 0 0 1-1.663-2.392.819.819 0 0 0-.193-.217 6.287 6.287 0 0 1-1-1.671 2.2 2.2 0 0 1-.358-1.291c0-.044-.026-.128-.047-.13-.545-.065-.259-.5-.346-.763-.061-.191-.157-.371-.238-.557l-.148.039v-1.416l-.127.037a1.806 1.806 0 0 1-.258-.58c-.033-.654 0-1.311-.023-1.966 0-.114-.135-.223-.207-.335-.055-.087-.143-.17-.156-.263a4.141 4.141 0 0 1-.02-.589q0-15-.006-30.007c0-.248.174-.6-.3-.682-.052-.009-.082-.3-.082-.456-.005-2.427 0-4.853 0-7.323h3.476l-.048-.133c.149-.1.3-.276.448-.276 2.757-.017 5.514-.012 8.319-.012v23.2c.494-.063.415.258.415.527v13.97l.141-.042a1.905 1.905 0 0 1 .241.565c.036.473.012.95.012 1.459l.394.13c-.106.935.486 1.556.9 2.3.334.6.866.814 1.3 1.2a6.638 6.638 0 0 0 .641.385c1.19.821 2.528.127 3.793.442l.1-.422a.368.368 0 0 1 .133-.029.9.9 0 0 0 .869-.387 3.454 3.454 0 0 1 .782-.515 11.067 11.067 0 0 0 .7-.994 8.479 8.479 0 0 0 .622-1.348c.092-.262-.11-.637.338-.753.042-.011.05-.174.066-.268.056-.334-.168-.768.352-.941.045-.016.041-.212.042-.324 0-.607-.006-1.213.007-1.82 0-.217-.116-.52.287-.554.04 0 .086-.155.1-.242a4 4 0 0 0 .006-.442V23.663c-.508-.041-.39-.422-.391-.723q-.006-6.444 0-12.888V4.757h12.187v22.288l.176-.033a2.408 2.408 0 0 1 .235.7q.022 6.1 0 12.2c0 .234.164.585-.3.655-.049.007-.087.253-.088.389-.007 1.017 0 2.033-.009 3.05 0 .189.084.448-.263.481-.052.005-.115.2-.12.316-.016.344.009.689-.011 1.032-.015.244.137.591-.32.633-.033 0-.062.2-.067.309-.011.295.014.593-.022.884-.015.123-.181.22-.222.349-.073.226-.089.47-.156.7a1.3 1.3 0 0 1-.316.55c.1.751-.4 1.3-.69 1.911-.316.673-.643 1.341-.966 2.011a.83.83 0 0 1-.057.134 19.722 19.722 0 0 1-1.3 1.719c-.884.946-1.792 1.879-2.763 2.732a15.917 15.917 0 0 1-1.984 1.306 7.094 7.094 0 0 1-1.09.659c-.286.117-.636.082-.922.227a5.587 5.587 0 0 1-.664.243c-.26.061-.619-.124-.7.332-.007.04-.2.063-.311.065-.392.007-.785 0-1.228 0v.393ZM0 55.491h.393v-.879c0-.279-.039-.566.293-.766.112-.068.06-.39.1-.591.075-.336-.225-.782.33-1 .1-.039.025-.46.066-.7.052-.3-.21-.71.328-.876.088-.027.026-.487.066-.742.046-.288-.211-.711.333-.807.033-.006.05-.176.052-.271.006-.376 0-.754 0-1.13l.154.035a4.09 4.09 0 0 0 .233-.671 5.158 5.158 0 0 0 .016-.736c0-.08.008-.221.04-.23.514-.137.28-.565.363-.872a2.156 2.156 0 0 1 .238-.4.827.827 0 0 0 .133-.328c.016-.376.006-.754.006-1.126.783-.367.19-1.071.542-1.539a3.957 3.957 0 0 0 .244-.716 6.456 6.456 0 0 0 .01-.888c.782-.408.163-1.118.463-1.615.731-.358.081-1.075.412-1.584.7-.346.076-1.057.387-1.574.74-.334.061-1.058.445-1.507a2.615 2.615 0 0 0 .253-.579 4.9 4.9 0 0 0 .013-.786c0-.082-.019-.224.013-.237.723-.3.232-.93.383-1.38a1.446 1.446 0 0 1 .158-.3c.071-.116.21-.222.22-.341.029-.374.01-.753.01-1.124.784-.369.191-1.073.461-1.6.733-.349.1-1.081.38-1.572.725-.387.116-1.094.408-1.587.73-.364.088-1.079.415-1.586.707-.347.073-1.06.387-1.57.683-.355.1-1.054.448-1.513a2.564 2.564 0 0 0 .252-.58 4.892 4.892 0 0 0 .013-.785c0-.082-.018-.223.014-.237.726-.3.23-.93.382-1.381a1.5 1.5 0 0 1 .159-.294c.072-.116.21-.223.218-.342.029-.375.011-.753.011-1.124.783-.369.19-1.074.461-1.6.733-.348.1-1.081.376-1.566.723-.394.122-1.1.4-1.584.722-.376.11-1.084.4-1.581.734-.36.095-1.075.416-1.589.735-.333.056-1.061.405-1.567.649-.194.117-.821.356-1.224h13.709c.091.3-.133.726.36.851.043.011.055.208.057.319.006.491 0 .983 0 1.512.359.011.429.221.4.54a5.2 5.2 0 0 0 0 1.031 2.21 2.21 0 0 0 .231.57l.152-.04v1.814l.151-.037a1.952 1.952 0 0 1 .232.567c.034.472.011.949.011 1.424l.136-.042a1.918 1.918 0 0 1 .247.571c.036.489-.011.984.023 1.474a1.952 1.952 0 0 0 .232.566l.151-.041v1.818l.148-.039a1.951 1.951 0 0 1 .234.568c.034.473.011.949.011 1.462.359.011.429.22.4.539a5.14 5.14 0 0 0 0 1.031 2.235 2.235 0 0 0 .231.57l.152-.04v1.809l.151-.039a1.97 1.97 0 0 1 .234.568c.034.473.011.949.011 1.462.36.009.429.22.4.538a5.258 5.258 0 0 0 0 1.031 2.223 2.223 0 0 0 .231.571l.152-.04v1.809l.151-.038a1.856 1.856 0 0 1 .233.569c.031.6.012 1.212.012 1.818l.137-.043a2.118 2.118 0 0 1 .245.566c.04.356-.016.723.022 1.081a2.205 2.205 0 0 0 .228.569l.154-.04v1.818l.149-.039a2.1 2.1 0 0 1 .235.569c.038.373-.01.755.021 1.129a1.653 1.653 0 0 0 .206.48l.178-.043c0 .489-.023.979.011 1.466a1.98 1.98 0 0 0 .229.569l.153-.039v1.808l.15-.039a2.107 2.107 0 0 1 .234.568c.038.373-.01.755.021 1.129a1.664 1.664 0 0 0 .207.481l.177-.043c0 .62-.019 1.24.011 1.859a1.842 1.842 0 0 0 .23.564l.152-.04v1.821l.149-.04a2.071 2.071 0 0 1 .235.566c.038.373-.01.755.02 1.129a1.683 1.683 0 0 0 .2.481l.165-.043v1.807l.179-.033a3.117 3.117 0 0 1 .234.708c.039.439.011.883.011 1.368.412-.025.411.238.4.533a8.376 8.376 0 0 0 .005 1.081 1.642 1.642 0 0 0 .2.47l.189-.032v1.121c0 .347-.073.689.306.959.248.175.077.53-.217.62a4.052 4.052 0 0 0-.528.3.862.862 0 0 1-.356.1c-.541.01-1.084-.011-1.625.016-.145.007-.283.144-.425.22l.052.147h-1.858l.043.161a1.865 1.865 0 0 1-.555.236c-.489.033-.981.011-1.505.011l-.064.394c-.652 0-1.275-.017-1.9.011a1.707 1.707 0 0 0-.53.22l.04.163h-1.171a.918.918 0 0 0-.841.279c-.107.131-.411.1-.593.14-.307-.551.234-1.252-.488-1.769 0-.283.022-.691-.007-1.1-.02-.276.2-.668-.307-.778-.05-.01-.071-.238-.074-.365-.009-.459.006-.918-.01-1.377-.009-.225.143-.543-.286-.6-.047-.005-.092-.228-.1-.352-.012-.373 0-.748 0-1.172h-9.029c-.258 0-.519.032-.432-.376H13.4c0 .307.018.627-.006.945-.019.243.142.595-.316.645-.035 0-.066.2-.07.307-.011.294.017.592-.018.883-.014.123-.151.231-.224.349a.771.771 0 0 0-.148.3c-.021.293.016.593-.02.883-.018.138-.158.259-.234.391a.815.815 0 0 0-.141.308c-.021.293.017.593-.022.883-.018.135-.164.252-.24.383a.758.758 0 0 0-.134.312c-.016.406-.006.813-.006 1.255-.339-.042-.716.189-.825-.328-.008-.038-.174-.057-.267-.058-.295-.007-.594.024-.885-.012a.835.835 0 0 1-.45-.277c-.484-.3-1.18.225-1.642-.492H6.374l-.106-.336c-.525-.253-1.189.241-1.7-.449H3.306c-.456-.752-1.159-.2-1.706-.479l-.058-.318H0Zm21.657-13v-1.93l-.38-.064c0-.522.023-1.014-.012-1.5a1.857 1.857 0 0 0-.241-.56l-.142.044c0-.458-.012-.917 0-1.374.012-.307.005-.575-.41-.573V34.67l-.4-.088v-1.913c-.359.063-.39-.12-.382-.391.019-.653.005-1.307.005-1.96l-.137-.078a2.365 2.365 0 0 0-.257.353c-.074.151-.1.326-.161.483a2.286 2.286 0 0 0-.227.458c-.04.256 0 .524-.019.784a.917.917 0 0 1-.134.332c-.077.142-.217.267-.243.415-.066.363.054.9-.149 1.067-.326.265-.22.524-.249.8-.022.195.005.394-.018.588-.012.1-.083.269-.134.271-.326.018-.239.25-.245.428-.009.278.009.557-.013.834a.886.886 0 0 1-.144.326c-.073.127-.213.241-.229.372-.036.291 0 .59-.023.883a.877.877 0 0 1-.148.321c-.073.128-.2.243-.224.376-.036.241.023.5-.02.734a2.719 2.719 0 0 1-.247.581l-.128-.036c-.051.637.181 1.331-.534 1.885ZM319.949 38.486c0-.409.019-.819-.007-1.227-.016-.262.18-.626-.3-.735-.064-.015-.082-.329-.082-.5-.006-1.23.006-2.46-.014-3.69a1.735 1.735 0 0 0-.218-.556l-.162.036c0-.654-.011-1.309.01-1.962 0-.115.157-.219.22-.339a1 1 0 0 0 .154-.406c.012-1.148 0-2.3.01-3.444 0-.21-.082-.48.286-.506.041 0 .1-.186.1-.286.012-.393 0-.786.009-1.18 0-.21-.085-.48.286-.5.04 0 .1-.186.1-.287.012-.392 0-.784 0-1.177l.147.036a3.007 3.007 0 0 0 .24-.581 4.21 4.21 0 0 0 .014-.687c0-.1-.013-.262.032-.283.519-.236.266-.713.375-1.077a6.115 6.115 0 0 1 .515-.942 2.212 2.212 0 0 0 .245-.644c.042-.263-.01-.492.295-.7.223-.151.279-.542.417-.823.293-.6.574-1.209.89-1.8.281-.522.6-1.025.907-1.531.359-.588.728-1.169 1.091-1.754a1.666 1.666 0 0 1 .116-.214c.822-.96 1.623-1.941 2.48-2.869a30.752 30.752 0 0 1 2.479-2.46 9.506 9.506 0 0 1 1.422-.985 7.591 7.591 0 0 1 .985-.669c.583-.2.911-.717 1.413-.928.467-.2.893-.664 1.5-.463.045.015.142-.09.2-.155s.081-.2.1-.2c.59.123.921-.657 1.55-.439.1.034.27-.136.384-.266.324-.324.954.245 1.208-.505.469 0 .991.016 1.511-.01a1.384 1.384 0 0 0 .454-.213l-.036-.169h6.338c.065 0 .174-.008.189.023.328.684.94.265 1.415.36.237.048.494-.015.736.019.12.017.223.144.338.214a.813.813 0 0 0 .3.16c.26.023.524.008.783.008.2.726.8.234 1.14.526.193.087.381.186.579.259.425.158.873.268 1.28.462.883.42 1.753.868 2.616 1.328 1.023.546 1.882 1.344 2.836 1.972 1.535 1.011 2.576 2.489 3.935 3.648.293.9 1.207 1.347 1.562 2.228a9.241 9.241 0 0 0 1.07 1.526 10.774 10.774 0 0 1 .741 1.244 21.48 21.48 0 0 0 1.339 2.732 2.4 2.4 0 0 1 .347 1.183c.016.109.19.194.31.269.264.347-.3.991.405 1.174.235.385-.282.99.4 1.183.237.507-.256 1.177.43 1.677v1.7l.162-.036a2.181 2.181 0 0 1 .238.667q.022 5.14 0 10.281c0 .238.154.592-.309.643-.036 0-.073.2-.075.3-.008.475.01.952-.009 1.426-.01.241.147.593-.317.63-.032 0-.064.2-.068.307-.011.294.017.592-.018.883-.015.124-.15.231-.222.351a.762.762 0 0 0-.15.3c-.022.294.015.593-.022.883-.017.138-.181.252-.227.393-.073.226-.088.47-.155.7a1.3 1.3 0 0 1-.316.551c.1.751-.4 1.3-.692 1.91q-.657 1.355-1.348 2.7a4.209 4.209 0 0 1-.982 1.6.937.937 0 0 0-.2.369c-.039.088-.026.206-.082.276-.541.7-1.1 1.379-1.635 2.08-.238.313-.387.7-.651.987a19.931 19.931 0 0 1-1.887 1.868c-.7.58-1.5 1.047-2.242 1.573a3.05 3.05 0 0 0-.517.451 4.956 4.956 0 0 1-1.792 1.115c-.66.294-1.264.714-1.927 1-.566.244-1.059.788-1.795.476-.177.827-.806.278-1.227.515.036.461-.342.306-.627.335-.269.028-.7-.207-.609.39-.482 0-.908-.009-1.334 0-.257.007-.584-.11-.661.315-.008.042-.2.071-.307.071-2.528 0-5.057.007-7.585-.008-.146 0-.291-.154-.414-.286-.48-.293-1.189.248-1.622-.491h-.876c-.24 0-.508.061-.593-.286-.012-.051-.161-.118-.226-.1-.671.186-1.106-.35-1.64-.553a23.5 23.5 0 0 1-2.131-1.043.833.833 0 0 1-.133-.063c-.564-.418-1.123-.845-1.691-1.258-.869-.631-1.782-1.209-2.605-1.894a13.216 13.216 0 0 1-1.417-1.577c-.234-.269-.441-.563-.682-.825a10.727 10.727 0 0 1-.889-.916c-.432-.606-.8-1.258-1.2-1.889-.051-.082-.123-.149-.175-.23-.334-.526-.683-1.043-.99-1.584a39.297 39.297 0 0 1-1.064-2.022 5.87 5.87 0 0 0-.537-1.213c-.356-.42-.182-1.048-.42-1.3-.382-.4-.154-.946-.379-1.152-.439-.4-.149-1.027-.4-1.24-.642-.553-.2-1.2-.36-1.771a2.254 2.254 0 0 0-.227-.428Zm27.511 9.131-.013-.1c.1-.1.224-.289.312-.276.721.1 1.226-.352 1.793-.644a5.966 5.966 0 0 1 1.022-.522 6.778 6.778 0 0 0 1.8-1.152 4.734 4.734 0 0 0 1.662-1.942c.394-.83 1.047-1.534 1.485-2.347a5.235 5.235 0 0 0 1.092-2.648c0-.055.045-.156.082-.162.4-.07.275-.38.285-.618.012-.31 0-.62 0-.971.5.034.386-.321.392-.6.007-.31 0-.62 0-1 .478.116.393-.21.393-.47 0-1.131-.009-2.262.013-3.393 0-.161.207-.314.228-.483.047-.383.039-.772.053-1.159-.375 0-.286-.294-.288-.5-.011-.869.009-1.738-.016-2.606a1.767 1.767 0 0 0-.223-.555l-.161.037c0-.31.005-.619 0-.929-.006-.286.124-.659-.342-.63a3.753 3.753 0 0 0-.151-1.036c-.307-.661-.747-1.261-1.039-1.927a5.559 5.559 0 0 0-.964-1.7c-.3-.321-.449-.79-.748-1.117a14.029 14.029 0 0 0-4.36-3.5c-.422-.193-.762-.658-1.337-.515-.3.074-.581.019-.564-.4h-1.1l-.062-.38c-1.174 0-2.322-.011-3.468.012a1.712 1.712 0 0 0-.565.24l.043.142c-.262 0-.524-.005-.786 0a.643.643 0 0 0-.276.062c-.2.106-.379.234-.57.348-.4.239-.8.473-1.2.713a4.309 4.309 0 0 0-.758.477c-.883.827-1.79 1.636-2.593 2.536a10.46 10.46 0 0 0-.948 1.673 10.63 10.63 0 0 1-.813 1.182c-.56.7-.58 1.629-1.02 2.385a2.219 2.219 0 0 0-.443 1.466c.006.04-.035.122-.062.125-.443.061-.281.4-.3.647-.019.343 0 .689-.015 1.032a.9.9 0 0 1-.141.33c-.076.144-.227.283-.231.427-.023.77 0 1.541-.024 2.311 0 .144-.163.282-.245.425a.688.688 0 0 0-.13.275c-.012.54-.005 1.079-.005 1.619l.151-.036a1.806 1.806 0 0 1 .232.574c.025.881.011 1.763.011 2.645l.166-.051a1.465 1.465 0 0 1 .218.427c.036.258-.021.529.02.784a2.455 2.455 0 0 0 .236.561c.312.335-.183.933.5 1.129.2.4-.3 1.017.46 1.206-.2.762.261 1.316.58 1.9.252.462.575.884.869 1.322.515.765.989 1.56 1.559 2.281a8.686 8.686 0 0 0 3.046 2.181c.5.252.984.7 1.639.5.026-.008.061.014.092.022.12.194.283.352.448.354 1.7.027 3.39.02 5.079.02ZM314.827 20.135v1.428l.149-.043a2.779 2.779 0 0 1 .235.564c.041.222-.022.463.019.685a2.84 2.84 0 0 0 .237.571l.148-.04v2.207l.149-.038a1.683 1.683 0 0 1 .234.567q.022 4.427.005 8.854c0 .217.107.517-.292.56-.043 0-.091.219-.093.337-.01.524.013 1.05-.018 1.573-.009.146-.168.28-.247.426a.831.831 0 0 0-.127.324c-.016.344.012.69-.012 1.032-.017.241.142.586-.315.649-.046.007-.04.325-.074.5-.05.246.183.619-.323.689-.054.008-.058.446-.066.685-.009.255.027.524-.42.449.189.817-.306 1.379-.609 2.006l-1.35 2.8a.671.671 0 0 1-.062.133c-.555.706-1.122 1.4-1.664 2.119a9.123 9.123 0 0 1-.512.847c-.932.969-1.872 1.934-2.857 2.848-.674.625-1.421 1.172-2.147 1.738a12.845 12.845 0 0 1-1.137.789c-.212.131-.482.17-.692.3a6.707 6.707 0 0 1-1.3.871c-.5.165-.9.675-1.517.515-.089-.023-.219.117-.33.18l-.355.2c-.145.082-.288.166-.435.243a1 1 0 0 1-.33.146c-.244.022-.491.006-.735.006-.153.357-.153.357-1.206.411-.185.734-.792.2-1.213.456l-.094.311h-1.445l.043.144a2.073 2.073 0 0 1-.551.242 8.646 8.646 0 0 1-.984.012 1.809 1.809 0 0 0-.657.231c-.449.179-.782.578-1.35.573-3.94-.032-7.88-.017-11.819-.017h-.522c0-.46.02-.884-.008-1.3-.018-.261.19-.634-.3-.734-.057-.012-.079-.3-.081-.457-.008-.837 0-1.673 0-2.509V40.264c0-.21.134-.516-.276-.545-.04 0-.089-.161-.1-.25-.018-.179-.016-.36-.016-.54V22.155c0-.214.121-.5-.279-.555-.061-.009-.106-.348-.106-.534-.008-1.984 0-3.968 0-5.952v-.527h-1.97v-2.334c0-.186.1-.432-.248-.474-.064-.008-.132-.272-.135-.418-.015-.655 0-1.312-.017-1.967 0-.115-.144-.22-.2-.339a1.212 1.212 0 0 1-.174-.455c-.018-.754-.007-1.508-.009-2.262 0-.2.074-.428-.264-.467-.058-.006-.121-.276-.123-.426-.012-.77 0-1.541-.016-2.312 0-.13-.145-.254-.216-.384a.943.943 0 0 1-.153-.331c-.023-.258-.007-.519-.007-.81h3.472l.117-.408h11.716c.016.335.217.4.538.392.721-.028 1.444-.009 2.166-.009l-.036.146a2.537 2.537 0 0 0 .668.236c.588.034 1.179.012 1.8.012l.071.343c.535.2 1.186-.21 1.745.425h.9c.168.753.77.258 1.2.472.161.694.8.154 1.144.478.176.083.372.263.525.232.561-.114.893.331 1.327.5a16.906 16.906 0 0 1 2.407 1.181c.619.364 1.124.937 1.761 1.255.844.422 1.335 1.265 2.113 1.678a5.213 5.213 0 0 1 1.952 1.721 26.291 26.291 0 0 0 1.688 2.037c.4.505.587 1.191 1.012 1.67a9.273 9.273 0 0 1 1.28 2.159c.085.172.141.359.236.525a4.777 4.777 0 0 0 .371.477 2.591 2.591 0 0 0 .709 1.836c.267.335-.317.981.457 1.169Zm-22.226 25.868c.227-.106.809.354 1.046-.317.01-.029.121-.024.186-.033.551-.078.99-.585 1.61-.424.04.01.111-.149.185-.207q.83-.657 1.671-1.3c.046-.035.131-.012.189-.038a1.791 1.791 0 0 0 .491-.252 17.619 17.619 0 0 0 2.336-2.67 16.857 16.857 0 0 0 1.206-1.929 2.049 2.049 0 0 0 .314-1.18c-.006-.073.091-.152.133-.232a2.616 2.616 0 0 0 .246-.5c.059-.215.014-.616.1-.64.448-.13.278-.461.3-.721.022-.29 0-.584 0-.876l.113.047c.093-.131.267-.261.268-.393.016-2.374.012-4.748.012-7.145l-.392-.077v-1.55c0-.113 0-.315-.04-.324-.551-.123-.285-.564-.353-.87-.026-.117-.047-.331-.091-.335-.393-.047-.272-.345-.3-.565a1.746 1.746 0 0 0-.04-.484 36.219 36.219 0 0 0-.818-1.608 4.321 4.321 0 0 0-.583-.991 17.264 17.264 0 0 0-4.978-4.133c-.435-.2-.8-.681-1.383-.515-.325.092-.514-.056-.518-.344-.426-.208-1.035.309-1.217-.441-.392 0-.77.007-1.147 0-.1 0-.284-.033-.3-.089-.156-.529-.531-.226-.838-.279 0 1.619-.009 3.191.014 4.763 0 .158.19.312.292.469l.094-.043v18c.484-.126.387.206.387.463v8.259c.567-.228 1.205.228 1.805-.496ZM41.768 16.128H40.59a1.731 1.731 0 0 0-.307-.97c-.2-.382-.058-.928-.1-1.4a1.609 1.609 0 0 0-.208-.47l-.176.044c0-.505.02-1.011-.012-1.515a1.621 1.621 0 0 0-.231-.512l-.151.04c0-.506.016-1.013-.009-1.518a1.523 1.523 0 0 0-.2-.471l-.186.045c0-.5.019-1.011-.01-1.514a1.651 1.651 0 0 0-.221-.51l-.162.038c0-.44.012-.881-.005-1.32-.009-.241.088-.476-.265-.68-.188-.109-.117-.661-.17-1.063h1.978l.068-.412h3.09l.061-.4h6.246l.056-.383h1.84l-.036.139a2.215 2.215 0 0 0 .658.23c1.771.019 3.544.011 5.316.011l-.037.146a1.939 1.939 0 0 0 .571.236c.506.033 1.018-.006 1.525.022a1.557 1.557 0 0 1 .484.21l-.061.165h1.452c.126.356.126.356 1.184.422.2.719.813.175 1.139.438.127.109.276.33.375.309.657-.141 1.095.331 1.6.558a12.2 12.2 0 0 1 1.365.9c.54.336 1.105.63 1.645.966a3.472 3.472 0 0 1 .592.51c.848.845 1.753 1.644 2.514 2.562a15.173 15.173 0 0 1 1.464 2.367 8.894 8.894 0 0 0 .893 1.808c.417.447.226.87.32 1.3a3.539 3.539 0 0 0 .233.572l.152-.037v2.6l.149-.04a1.783 1.783 0 0 1 .237.567c.028.737.016 1.476.008 2.213 0 .21.079.479-.286.515-.046 0-.1.216-.1.332-.01.64.015 1.28-.016 1.918a2.015 2.015 0 0 1-.238.6l-.145-.05c0 .31.012.62 0 .93-.014.27.127.647-.422.595.207.817-.315 1.356-.6 1.972-.308.677-.638 1.343-.959 2.014a.741.741 0 0 1-.061.133c-.428.573-.862 1.142-1.286 1.719a1.838 1.838 0 0 0-.2.421c-.028.073.014.193-.03.238-.216.214-.592.346-.113.716.231.178.321.534.482.8a.7.7 0 0 0 .165.182 9.018 9.018 0 0 1 1.9 2.941 3.035 3.035 0 0 1 .355 1.229c.015.106.195.19.387.365.19.386-.359 1.093.38 1.546 0 2.167 0 4.4-.012 6.623 0 .149-.175.3-.3.425-.245.345.258.951-.484 1.156.195.756-.32 1.3-.606 1.914a10.248 10.248 0 0 1-.491.949 5.2 5.2 0 0 1-.652.947c-.8.841-1.66 1.636-2.461 2.48a4.887 4.887 0 0 1-1.833 1.148 2.432 2.432 0 0 0-.623.536c-.07.064-.144.212-.188.2-.59-.134-1.026.248-1.521.428-.046.017-.12.011-.137.04-.305.528-.833.28-1.214.349-.416.771-1.112.161-1.645.466-.011.247-.179.363-.515.323a8.947 8.947 0 0 0-1.031-.009l.043.141a1.7 1.7 0 0 1-.551.241c-.639.03-1.281 0-1.92.022a1.55 1.55 0 0 0-.492.213l.047.151H42.949c0-.655.012-1.32-.01-1.983 0-.126-.15-.245-.224-.37a.845.845 0 0 1-.141-.279 3.783 3.783 0 0 1-.018-.54q0-8.756-.006-17.513c0-.218.161-.552-.282-.589-.039 0-.082-.164-.091-.255-.018-.179-.015-.36-.015-.54q0-8.56-.005-17.119c0-.223.146-.539-.287-.6-.055-.007-.1-.321-.1-.493-.006-1.235-.002-2.478-.002-3.781Zm13.43 14.613a3.948 3.948 0 0 0 1.088-.137c.725-.319 1.416-.716 2.114-1.094a5.5 5.5 0 0 0 1.293-.765 12.38 12.38 0 0 0 2.85-3.206 1.445 1.445 0 0 0 .107-.361c.056-.305-.151-.711.345-.848.04-.012.05-.179.05-.273 0-.968.008-1.935 0-2.9 0-.1-.1-.2-.15-.3-.077-.139-.224-.277-.224-.415a2.483 2.483 0 0 0-.781-1.747 5.266 5.266 0 0 0-1.88-1.526c-.666-.255-1.213-.835-2.046-.612l-.065-.427h-1.9l-.066-.353h-1.92v9.369l.165-.033a1.4 1.4 0 0 1 .2.469c.016 1.344.009 2.689.009 4.033v1.463h.754Zm-.4 9.8v7.464h1.527l.046-.379h1.927l.053-.458c.718.339 1.206-.211 1.785-.389a4.22 4.22 0 0 0 1.119-.679c.211-.151.366-.376.569-.541a1.062 1.062 0 0 0 .45-1.011c-.017-.142.05-.415.113-.425.326-.054.274-.279.265-.482a2.985 2.985 0 0 0-2.982-3.1 6.575 6.575 0 0 1-.884-.012 2.407 2.407 0 0 1-.579-.243l.016-.2c-.216.069-.435.129-.645.212-.169.067-.324.229-.489.234-.757.018-1.509.004-2.291.004ZM96.508 4.722c.736 0 1.376-.012 2.014.005.272.008.459-.021.375-.377h4.648l-.04.117a1.893 1.893 0 0 0 .571.243c.523.035 1.051 0 1.575.023.145.008.284.143.426.22l-.052.151h1.454c.208.741.807.241 1.138.538.193.087.38.185.578.258a7.663 7.663 0 0 1 1.32.489 16.018 16.018 0 0 1 3.08 1.754 9.584 9.584 0 0 0 1.633.975 3.177 3.177 0 0 1 .549.485c1.356 1.358 2.738 2.691 4.048 4.092a11.5 11.5 0 0 1 1.142 1.757 1.045 1.045 0 0 0 .151.248c.748.624.921 1.586 1.394 2.371a14.593 14.593 0 0 1 1.038 2.08c.21.522.765.926.584 1.607-.024.092.18.245.3.353.277.484-.283 1.193.447 1.608.183.342-.309.939.411 1.146v2.206l.143-.041c.085.189.243.379.244.569q.023 4.623.005 9.246c0 .212.125.519-.279.568-.049.006-.1.213-.1.328-.012.442.015.886-.013 1.327-.016.264.19.662-.33.716-.028 0-.051.176-.054.271-.008.295 0 .59-.009.885 0 .1 0 .266-.043.278-.555.17-.258.631-.353.957a1.086 1.086 0 0 1-.313.422c-.236.349.254.947-.412 1.143-.239.373.29.984-.46 1.194.189.769-.337 1.32-.63 1.95l-.547 1.189c-.02.044-.024.1-.057.134a6.313 6.313 0 0 0-1.251 2.056c-.123.238-.389.4-.557.618a13.726 13.726 0 0 1-.9 1.227 34.622 34.622 0 0 1-3.438 3.373 8.767 8.767 0 0 1-2.985 2.006c-.2.054-.342.3-.53.42-.207.137-.439.238-.658.357a2.756 2.756 0 0 0-.322.195c-.058.043-.116.174-.139.166a1.608 1.608 0 0 0-1.5.468 2.322 2.322 0 0 1-1.39.341c-.175.762-.807.161-1.112.529a2.137 2.137 0 0 1-.562.239c-.34.04-.688.007-1.032.012-.221 0-.473-.053-.536.285-.009.051-.186.1-.285.1q-3.741.008-7.482 0l.04-.15a2.2 2.2 0 0 0-.575-.233c-.373-.037-.755.012-1.13-.021a.823.823 0 0 1-.454-.276c-.331-.314-.963.265-1.167-.516-.8.213-1.365-.351-2.015-.661-.336-.16-.678-.311-1-.491-.252-.138-.48-.318-.723-.473a11.815 11.815 0 0 0-.566-.333c-.056-.032-.13-.036-.18-.074-.6-.452-1.194-.922-1.809-1.358a11.954 11.954 0 0 1-2.378-1.99c-.286-.344-.5-.751-.783-1.092-.379-.451-.843-.834-1.19-1.3-.422-.572-.758-1.209-1.136-1.813-.266-.425-.548-.841-.814-1.267a29.755 29.755 0 0 1-.741-1.238 27.671 27.671 0 0 1-.707-1.37 1.487 1.487 0 0 1-.088-.424c-.04-.269.139-.6-.312-.746-.092-.029-.061-.452-.083-.693-.016-.18.063-.376-.242-.441-.086-.019-.111-.359-.151-.555-.048-.236.147-.567-.3-.648-.062-.011-.081-.356-.09-.548-.015-.293 0-.588 0-.858-.773-.394-.171-1.1-.525-1.567a1.791 1.791 0 0 1-.251-.581c-.03-.735-.012-1.473-.012-2.21l-.133.035a1.725 1.725 0 0 1-.25-.585q-.026-3.3 0-6.591c0-.141.17-.276.244-.422a.955.955 0 0 0 .13-.375c.014-.606 0-1.213.011-1.82.005-.233-.12-.553.308-.589.035 0 .072-.2.077-.3.012-.295 0-.59.009-.886 0-.1 0-.268.035-.276.625-.161.266-.661.353-1 .064-.249-.149-.6.315-.707.068-.015.067-.386.078-.593.012-.223-.041-.438.261-.56.1-.04.114-.335.131-.518.025-.265-.029-.5.287-.7a1.381 1.381 0 0 0 .4-.8c.127-.509.633-.883.512-1.477a.331.331 0 0 1 .075-.272c.862-.688 1.041-1.773 1.575-2.649.343-.562.771-1.072 1.141-1.619a36.7 36.7 0 0 1 4.259-4.64c.089-.092.2-.248.29-.241.527.038.71-.409 1.015-.677.275-.241.462-.615.922-.555.048.006.12-.054.158-.1.658-.828 1.705-.984 2.538-1.5a2.116 2.116 0 0 1 1.232-.363c.059 0 .127-.109.18-.175s.078-.18.119-.182c.648-.026 1.161-.63 1.868-.425.233.068.488.036.345-.388Zm3.079 12.047-.005.131c-.342.023-.843-.087-.991.094-.338.411-.846.4-1.222.69-.49.38-1.106.6-1.591.982a11.524 11.524 0 0 0-1.465 1.455c-.439.5-.817 1.052-1.217 1.584a1.714 1.714 0 0 0-.1.219c-.121.218-.235.441-.373.647-.1.148-.3.257-.339.411-.186.812-.979 1.388-.887 2.306.008.079-.092.167-.135.253-.083.165-.163.331-.241.5-.047.1-.089.2-.135.3a2.782 2.782 0 0 0-.248.553c-.066.313.038.79-.139.926-.379.29-.231.619-.258.938-.024.277 0 .558-.015.836-.007.1-.067.279-.116.285-.333.034-.266.27-.267.472 0 1.673-.008 3.345.01 5.018a1.716 1.716 0 0 0 .229.563l.166-.04v1.904c.408-.117.379.13.387.378a5.431 5.431 0 0 0 .1 1.109 3.717 3.717 0 0 0 .414.793c.07.066.265.168.256.252a2.221 2.221 0 0 0 .366 1.321 5.335 5.335 0 0 0 1 1.635 1.125 1.125 0 0 1 .162.238c.465.706.907 1.429 1.4 2.115a7.384 7.384 0 0 0 2.152 1.707 2.464 2.464 0 0 0 1.629.679.846.846 0 0 1 .4.147c.136.068.258.22.39.225.638.024 1.277.011 1.828.011l.383.392.27-.4h2.6l.1-.349a4.336 4.336 0 0 0 1.056-.123 12.924 12.924 0 0 0 1.378-.711 5.393 5.393 0 0 0 1.111-.609c.768-.691 1.48-1.442 2.21-2.174a3.12 3.12 0 0 0 .446-.521c.381-.609.759-1.222 1.1-1.851a9.39 9.39 0 0 1 .551-1.192 1.966 1.966 0 0 0 .388-1.347c0-.043.094-.083.123-.137a2.382 2.382 0 0 0 .246-.5c.06-.215.018-.615.1-.639.422-.118.283-.425.295-.673.017-.344 0-.689.013-1.032a.835.835 0 0 1 .13-.324c.078-.144.241-.278.243-.419.021-1.115.008-2.229.017-3.345 0-.172.009-.444.107-.5.609-.328.168-.425-.123-.571v-3.4l-.4-.082v-1.49l-.154.04c-.074-.139-.227-.292-.207-.415.109-.649-.39-1.059-.586-1.584a11.267 11.267 0 0 0-.629-1.337 9.053 9.053 0 0 0-.767-1.275c-.432-.56-1.105-.922-1.317-1.671-.045-.161-.258-.285-.411-.4-.422-.321-.852-.63-1.282-.94a8.456 8.456 0 0 0-.477-.321 4.962 4.962 0 0 1-.6-.378 2.548 2.548 0 0 0-1.886-.808c-.095.006-.191 0-.3 0l-.072-.394a10.305 10.305 0 0 1-1.112-.012 1.985 1.985 0 0 1-.553-.245l.045-.137c-.886 0-1.773-.012-2.658.011a1.538 1.538 0 0 0-.523.226ZM250.76 31.383a2.022 2.022 0 0 1 .224.566c.033.472.011.949.011 1.423l.142-.04a2.1 2.1 0 0 1 .241.569c.039.373-.009.755.02 1.129a1.639 1.639 0 0 0 .193.47l.181-.032v1.854l.169-.036a1.972 1.972 0 0 1 .225.566c.033.472.011.949.011 1.423l.141-.04a1.921 1.921 0 0 1 .241.571c.035.506 0 1.016.021 1.523a1.552 1.552 0 0 0 .2.477l.175-.044v1.855l.165-.037a1.961 1.961 0 0 1 .228.567c.034.472.011.949.011 1.423l.139-.041a2.167 2.167 0 0 1 .245.57 6.092 6.092 0 0 1 .007 1.031c-.016.3-.012.555.4.533v1.855l.151-.038a1.97 1.97 0 0 1 .231.567c.034.473.011.949.011 1.424l.136-.042a2.112 2.112 0 0 1 .247.57 8.958 8.958 0 0 1 .011 1.081c0 .268-.068.574.394.46v2.274l.154-.039a2.931 2.931 0 0 1 .231.564 3.705 3.705 0 0 1 .01.637c.007.428-.138.905.477 1.142l-.1.123c-.213 0-.428-.012-.64 0s-.519-.112-.558.29c0 .045-.217.1-.333.1-.508.011-1.016 0-1.525 0l.043.145a1.85 1.85 0 0 1-.555.238c-.488.033-.98.011-1.5.011l-.068.383h-1.87l-.123.4c-.623 0-1.231-.019-1.836.012a1.892 1.892 0 0 0-.574.231l.036.151h-1.13c-.325 0-.633-.03-.887.288-.1.128-.41.091-.585.122-.318-.551.266-1.264-.474-1.73v-1.745l-.407-.141c0-.429.015-.855-.005-1.279-.012-.252.168-.605-.3-.682-.047-.008-.079-.236-.082-.363-.009-.491 0-.982 0-1.543h-9c-.275 0-.55.041-.468-.383h-1.174a7.592 7.592 0 0 1-.008.873c-.03.264.186.651-.325.74-.054.01-.038.391-.061.6s.106.521-.3.556c-.04 0-.089.186-.093.287-.013.294.02.593-.019.883-.018.135-.163.252-.244.381a.667.667 0 0 0-.13.269c-.018.278.025.562-.019.834a2.471 2.471 0 0 1-.249.582l-.132-.035a4.178 4.178 0 0 1-.017.977 2.725 2.725 0 0 1-.444.775.244.244 0 0 1-.221.014c-.32-.526-.831-.151-1.231-.273a1.649 1.649 0 0 1-.537-.29c-.473-.293-1.143.217-1.663-.512-.362-.2-1.069.373-1.546-.373h-1.4l-.064-.388h-1.478l-.1-.334c-.526-.256-1.191.241-1.687-.428a8.077 8.077 0 0 1-1.282-.132c-.193-.047-.328-.336-.488-.515l.153-.013a6.015 6.015 0 0 0 .18-.763 8.166 8.166 0 0 0 .008-.883l.134.04a2.541 2.541 0 0 0 .245-.574 4.891 4.891 0 0 0 .013-.785c0-.082-.019-.224.013-.237.724-.3.232-.929.383-1.38a1.451 1.451 0 0 1 .157-.3c.072-.116.211-.221.22-.339.029-.375.011-.753.011-1.124.366-.186.366-.186.406-1.573.788-.373.156-1.107.436-1.6.725-.387.112-1.093.409-1.589.723-.362.093-1.074.4-1.584.743-.34.065-1.064.415-1.579.666-.344.087-1.043.453-1.5a3.259 3.259 0 0 0 .23-.626 5.74 5.74 0 0 0 .013-.785c0-.08.009-.224.035-.229.587-.12.284-.583.355-.9.064-.286-.2-.707.338-.806.033-.006.05-.177.052-.271.005-.377 0-.754 0-1.131l.151.036a6.7 6.7 0 0 0 .241-.674c.1-.394-.227-.911.37-1.171.066-.029.011-.31.033-.471.031-.234-.1-.549.3-.624.047-.009.084-.194.086-.3.011-.376 0-.754 0-1.126.784-.367.187-1.072.546-1.539a3.923 3.923 0 0 0 .234-.719 6.5 6.5 0 0 0 .01-.882c.774-.416.168-1.122.456-1.614.73-.366.091-1.081.415-1.587.709-.348.075-1.061.391-1.576.738-.334.057-1.059.444-1.507a2.573 2.573 0 0 0 .251-.579 4.81 4.81 0 0 0 .013-.786c0-.082-.018-.223.014-.236.725-.3.231-.93.383-1.381a1.458 1.458 0 0 1 .158-.295c.072-.116.21-.222.219-.341.029-.374.011-.753.011-1.124.783-.369.19-1.073.46-1.6.734-.348.1-1.081.381-1.572.725-.386.115-1.093.408-1.587.731-.363.087-1.078.415-1.586.7-.346.075-1.059.387-1.57.689-.351.1-1.053.447-1.511a2.6 2.6 0 0 0 .252-.579 4.9 4.9 0 0 0 .013-.786c0-.082-.019-.223.014-.236.722-.3.233-.931.382-1.383.032-.1.075-.269.119-.272.35-.016.262-.268.269-.464.007-.227 0-.455 0-.71h13.778c.067.3-.116.73.37.876.051.016.04.274.041.419v1.327l.15-.036a2.712 2.712 0 0 1 .234.662c.036.455.011.914.011 1.372l.149-.038a1.887 1.887 0 0 1 .234.569c.03.6.011 1.212.011 1.818l.137-.043a1.9 1.9 0 0 1 .245.566c.036.472.012.949.012 1.424l.147-.036a2.65 2.65 0 0 1 .235.661c.037.455.012.914.012 1.372l.147-.039a2.123 2.123 0 0 1 .236.568c.038.373-.01.755.021 1.129a1.667 1.667 0 0 0 .2.481l.162-.043v1.809l.171-.033a3.166 3.166 0 0 1 .231.707c.037.439.01.883.01 1.324l.147-.039a2.114 2.114 0 0 1 .237.568c.038.373-.01.755.02 1.129a1.68 1.68 0 0 0 .2.482l.18-.043c0 .619-.018 1.24.012 1.858a1.857 1.857 0 0 0 .227.564l.153-.039v1.855c.411-.022.416.238.4.534a8.1 8.1 0 0 0 .005 1.081 1.7 1.7 0 0 0 .2.481l.175-.043v1.853Zm-11.983 1.354-.152.04a1.879 1.879 0 0 1-.227-.554c-.033-.5-.011-1-.011-1.577-.163.072-.263.107-.353.159-.478.275-.456.73-.445 1.2 0 .213-.035.595-.12.613-.356.082-.246.321-.269.529-.038.35.036.839-.161 1.015-.256.226-.213.423-.228.656s.01.461-.018.687a.913.913 0 0 1-.165.309c-.069.116-.192.223-.206.343-.031.292 0 .59-.02.883a.919.919 0 0 1-.134.336c-.076.143-.217.27-.239.417-.04.273 0 .557-.022.834a.864.864 0 0 1-.142.328c-.072.127-.211.239-.231.371-.037.257.021.528-.022.783a2.225 2.225 0 0 1-.245.536l-.128-.04c-.058.639.188 1.339-.518 1.875h5.617v-1.915l-.38-.066c0-.522.024-1.015-.012-1.5a1.834 1.834 0 0 0-.243-.56l-.139.044c0-.491.02-.984-.011-1.473a1.653 1.653 0 0 0-.228-.511l-.155.04c0-.49.023-.981-.011-1.469a1.893 1.893 0 0 0-.238-.56l-.147.043ZM168.672 5.128h35.434v2.007c0 .9-.01 1.8.009 2.705a1.5 1.5 0 0 0 .2.48l.165-.043v6.645h-11.147a.915.915 0 0 0-1.047 1.038v10.723c0 .238-.094.553.37.436v31.059H180.88v-1.081l-.166.036a3.794 3.794 0 0 1-.241-.54 1.7 1.7 0 0 1-.009-.44V25.689c0-.213.126-.5-.277-.557-.062-.009-.108-.347-.109-.533-.008-2.23 0-4.46 0-6.69v-.577h-11.4Z"/></svg>