<svg xmlns="http://www.w3.org/2000/svg" width="169.425" height="24.885"><defs><style>.a{fill:#140902}</style></defs><path class="a" d="M169.425 23.922a.692.692 0 0 0-.392.118c-.218.1-.415.326-.709.177l.026.084a1.091 1.091 0 0 1-.228.1c-.091.017-.189-.009-.28.008a1.13 1.13 0 0 0-.23.1l.016.061h-.722c-.088 0-.193-.028-.224.11-.006.025-.086.047-.132.047h-3.355l.017-.056a.807.807 0 0 0-.237-.1c-.2-.015-.4 0-.6-.009a.761.761 0 0 1-.226-.1l.016-.061c-.207 0-.415.007-.621 0a.315.315 0 0 1-.18-.111c-.193-.133-.482.1-.671-.2-.169-.086-.452.135-.641-.164h-.224c-.04 0-.089.011-.119-.007-.14-.084-.275-.177-.411-.266-.026-.017-.053-.046-.079-.045-.424.021-.723-.272-1.07-.436a10.337 10.337 0 0 1-1.01-.564 2.238 2.238 0 0 1-.354-.323c-.115-.111-.207-.268-.343-.334-.58-.281-.784-.917-1.266-1.3a3.215 3.215 0 0 1-.544-.821c-.115-.178-.241-.349-.35-.53a3.549 3.549 0 0 0-.291-.525c-.175-.2-.128-.464-.257-.683-.1-.176-.288-.368-.219-.624.008-.03 0-.09-.01-.094-.234-.073-.113-.27-.154-.41-.017-.057-.083-.1-.156-.183a2.49 2.49 0 0 0 0-.308c-.011-.1.081-.254-.123-.275-.015 0-.03-.084-.031-.129v-.461l-.053.015a.726.726 0 0 1-.1-.237c-.013-.3-.005-.6-.005-.9l-.052.015c-.036-.079-.1-.159-.1-.239q-.01-1.906 0-3.813c0-.058.068-.113.1-.173a.394.394 0 0 0 .054-.152c.006-.214 0-.428 0-.642 0-.046 0-.127.017-.132.247-.072.114-.271.139-.412.017-.1 0-.2.009-.3a.334.334 0 0 1 .052-.118.814.814 0 0 0 .1-.179c.028-.121-.037-.271.138-.338.024-.009.021-.1.026-.149.011-.123-.052-.273.134-.33.018-.005.022-.071.026-.11a.858.858 0 0 1 .121-.4c.093-.158.279-.345.205-.587a.189.189 0 0 1 .03-.127c.093-.168.192-.332.289-.5.036-.062.069-.127.108-.187.12-.188.242-.374.362-.561a2.493 2.493 0 0 0 .2-.333c.159-.366.531-.57.712-.9a11.039 11.039 0 0 1 1.21-1.347c.312-.056.448-.352.686-.5.416-.261.86-.475 1.294-.708a8.719 8.719 0 0 1 .783-.409c.23-.094.427-.323.726-.187l.039-.179h.61l.034-.166h.379c.126 0 .269.059.263-.159h.79V0h4.661v.157a1.934 1.934 0 0 1 1.268.248v.688c0 .05-.011.13-.042.145-.186.093-.1.258-.114.394-.011.106 0 .214-.006.32 0 .042-.025.117-.044.119-.149.016-.11.124-.112.209v.461c0 .048-.028.131-.051.134-.138.016-.1.114-.105.194v.461c0 .045-.008.125-.027.13-.211.052-.121.218-.13.339-.011.167 0 .334 0 .5 0 .045-.011.127-.027.129-.2.032-.118.189-.129.3a1.658 1.658 0 0 1-.009.319.763.763 0 0 1-.19.308c-.1.093-.112-.032-.153-.088-.013-.017-.063-.009-.1-.01a2.54 2.54 0 0 1-.361 0 .708.708 0 0 1-.2-.1l.018-.051c-.2 0-.4.01-.6 0a.727.727 0 0 1-.224-.1l.018-.047h-2.3c-.231.254-.494.089-.693.165-.033.049-.06.134-.1.139a.931.931 0 0 0-.516.146 11.3 11.3 0 0 1-1 .564c-.229.14-.432.322-.648.483a5.658 5.658 0 0 0-.958 1.119.251.251 0 0 0-.024.055c-.073.162-.153.321-.219.486-.144.359-.455.65-.436 1.075 0 .019-.006.051-.017.055-.245.092-.1.3-.137.454-.017.069-.016.2-.037.2-.187.026-.111.164-.124.261-.016.117.015.284-.05.341-.169.147-.094.319-.109.481-.011.133 0 .268-.006.4 0 .047-.029.13-.051.132-.14.015-.105.115-.105.194 0 .415-.006.83 0 1.244a.715.715 0 0 0 .1.232l.061-.017v1.063l.182.062a1.206 1.206 0 0 0 .166.878c.053.05.128.09.127.127a1.42 1.42 0 0 0 .136.521 5.243 5.243 0 0 0 .8 1.2 3.857 3.857 0 0 0 1.442 1.155c.106.055.216.1.325.153.259.12.483.347.763.27.209.274.49.088.691.183.036.051.079.125.125.127.285.011.571.005.856.005v-2.261h-2.078V13.506c0-.059-.021-.167-.042-.169-.151-.018-.114-.132-.115-.214V11.4h3.846l.023-.144h3.693v3.2h.153ZM59.154 24.885v-.161c-.13 0-.256.008-.38 0-.1-.009-.25.068-.284-.13 0-.025-.185-.01-.281-.031a.4.4 0 0 1-.206-.126c-.319.043-.547-.175-.806-.3l-.767-.372a.565.565 0 0 1-.126-.058c-.384-.323-.773-.641-1.145-.977a3.18 3.18 0 0 1-.678-.976.334.334 0 0 0-.079-.088 2.565 2.565 0 0 1-.409-.682.9.9 0 0 1-.146-.527c0-.018-.01-.052-.019-.053-.222-.027-.106-.2-.141-.311-.025-.078-.064-.151-.1-.227l-.06.016v-.58l-.052.015a.737.737 0 0 1-.105-.237c-.014-.267 0-.535-.01-.8 0-.047-.055-.091-.085-.137s-.058-.069-.064-.107a1.688 1.688 0 0 1-.008-.24V5.555c0-.1.071-.247-.124-.278-.021 0-.033-.121-.033-.186V2.103h1.418l-.023-.06c.061-.039.122-.112.183-.113 1.125-.007 2.249-.005 3.394-.005v9.466c.2-.026.169.105.169.215v5.7l.058-.017a.777.777 0 0 1 .1.231c.015.193 0 .388 0 .6l.161.053c-.043.381.2.635.366.938.136.247.353.332.532.49a2.709 2.709 0 0 0 .262.157c.485.335 1.031.052 1.547.181l.041-.172a.15.15 0 0 1 .054-.012.366.366 0 0 0 .355-.158 1.409 1.409 0 0 1 .319-.21 4.514 4.514 0 0 0 .285-.406 3.458 3.458 0 0 0 .254-.55c.037-.107-.045-.26.138-.307.017 0 .02-.071.027-.109.023-.136-.069-.313.144-.384.018-.006.017-.086.017-.132v-.743c0-.088-.047-.212.117-.226.016 0 .035-.063.039-.1a1.628 1.628 0 0 0 0-.181V9.653c-.207-.017-.159-.172-.16-.295V1.943h4.972v9.09l.072-.014a.982.982 0 0 1 .1.288q.009 2.489 0 4.977c0 .1.067.239-.12.267-.02 0-.035.1-.036.159v1.244c0 .077.034.183-.107.2-.021 0-.047.083-.049.129-.006.14 0 .281 0 .421-.006.1.056.241-.13.258-.013 0-.025.082-.027.126 0 .12.006.242-.009.361-.006.05-.074.09-.091.142-.03.092-.036.192-.064.285a.532.532 0 0 1-.129.225c.041.306-.164.529-.282.78-.129.275-.263.547-.394.821a.337.337 0 0 1-.023.055 8.048 8.048 0 0 1-.532.7c-.361.386-.731.766-1.127 1.115a6.491 6.491 0 0 1-.809.533 2.893 2.893 0 0 1-.445.269c-.117.048-.259.033-.376.092a2.281 2.281 0 0 1-.271.1c-.106.025-.253-.051-.287.136 0 .016-.082.026-.127.027h-.5v.16ZM0 22.638h.16v-.358c0-.113-.016-.233.12-.311.046-.028.024-.159.043-.241.03-.137-.092-.319.135-.408.04-.016.01-.187.027-.284.021-.123-.086-.29.134-.357.036-.011.011-.2.027-.3s-.086-.29.136-.329c.014 0 .021-.072.021-.111v-.461l.063.014a1.669 1.669 0 0 0 .1-.274 2.1 2.1 0 0 0 .007-.3c0-.033 0-.09.016-.094.21-.056.114-.231.148-.356a.879.879 0 0 1 .1-.163.337.337 0 0 0 .046-.136c.007-.154 0-.307 0-.459.32-.15.078-.437.221-.628a1.614 1.614 0 0 0 .1-.293 2.634 2.634 0 0 0 0-.362c.319-.167.067-.456.189-.659.3-.146.033-.439.168-.646.286-.141.031-.431.158-.642.3-.136.025-.432.181-.615a1.067 1.067 0 0 0 .1-.236 2 2 0 0 0 .005-.32c0-.033-.008-.091.005-.1.3-.123.095-.379.156-.563a.59.59 0 0 1 .064-.121c.029-.048.086-.091.09-.139.012-.153 0-.307 0-.459.32-.15.078-.438.188-.652.3-.142.042-.441.155-.641.3-.158.047-.446.166-.648.3-.149.036-.44.169-.647.288-.142.03-.433.158-.64.279-.145.042-.43.183-.617a1.046 1.046 0 0 0 .1-.237 2 2 0 0 0 .005-.32c0-.034-.007-.091.006-.1.3-.123.094-.379.156-.563a.613.613 0 0 1 .065-.12c.029-.047.086-.091.089-.139.012-.153 0-.307 0-.459.32-.15.078-.438.188-.653.3-.142.041-.441.154-.639.295-.161.05-.448.165-.646.295-.153.045-.442.162-.645.3-.147.039-.439.17-.648.3-.136.023-.433.165-.639.265-.079.048-.335.145-.5h5.611c.037.121-.054.3.147.347.018 0 .022.085.023.13v.617c.146 0 .175.09.164.22a2.121 2.121 0 0 0 0 .421.9.9 0 0 0 .094.232l.062-.016v.744l.061-.015a.8.8 0 0 1 .095.231c.014.193 0 .387 0 .581l.055-.017a.782.782 0 0 1 .1.233c.015.2 0 .4.009.6a.8.8 0 0 0 .095.231l.062-.017v.74l.06-.016a.8.8 0 0 1 .1.232c.014.193 0 .387 0 .6.146 0 .175.09.164.22a2.1 2.1 0 0 0 0 .421.912.912 0 0 0 .094.232l.062-.016v.739l.061-.016a.8.8 0 0 1 .1.232c.014.193 0 .387 0 .6.147 0 .175.09.163.219a2.145 2.145 0 0 0 0 .421.907.907 0 0 0 .094.233l.062-.016v.739l.061-.016a.757.757 0 0 1 .1.232c.013.247 0 .494 0 .742l.056-.017a.864.864 0 0 1 .1.231c.016.145-.006.3.009.441a.9.9 0 0 0 .093.232l.063-.016v.739l.061-.016a.857.857 0 0 1 .1.232c.016.152 0 .308.009.461a.674.674 0 0 0 .084.2l.073-.018c0 .2-.009.4 0 .6a.808.808 0 0 0 .093.232l.062-.016v.739l.061-.016a.859.859 0 0 1 .1.232c.016.152 0 .308.009.461a.679.679 0 0 0 .085.2l.072-.017c0 .253-.008.506 0 .758a.751.751 0 0 0 .094.23l.062-.016v.74l.061-.016a.845.845 0 0 1 .1.231c.016.152 0 .308.008.461a.687.687 0 0 0 .082.2l.067-.018v.738l.068-.014a1.272 1.272 0 0 1 .1.289c.016.179 0 .36 0 .558.168-.01.168.1.162.218a3.417 3.417 0 0 0 0 .441.67.67 0 0 0 .08.192l.077-.013v.457c0 .157-.03.281.125.391.1.072.031.216-.089.253a1.653 1.653 0 0 0-.215.121.352.352 0 0 1-.145.039c-.221 0-.442 0-.663.006-.059 0-.116.059-.174.09l.021.06h-.758l.018.066a.761.761 0 0 1-.226.1c-.2.014-.4 0-.614 0l-.026.161c-.266 0-.52-.007-.773 0a.7.7 0 0 0-.216.09l.016.067h-.48a.374.374 0 0 0-.343.114c-.044.054-.168.042-.242.057-.125-.225.1-.511-.2-.722 0-.115.009-.282 0-.447-.008-.113.082-.272-.125-.317-.02 0-.029-.1-.03-.149v-.562c0-.092.058-.222-.117-.243-.019 0-.037-.093-.039-.143-.005-.152 0-.3 0-.478H6.123c-.105 0-.212.013-.176-.154h-.482c0 .125.007.256 0 .385-.008.1.058.243-.129.263-.014 0-.027.081-.029.125 0 .12.007.242-.007.36-.006.05-.061.094-.091.143a.315.315 0 0 0-.06.123c-.009.12.007.242-.008.36-.007.056-.064.105-.1.16a.332.332 0 0 0-.057.126c-.009.12.007.242-.009.36-.007.055-.067.1-.1.156a.309.309 0 0 0-.054.127c-.006.166 0 .332 0 .512-.138-.017-.292.077-.337-.134 0-.016-.071-.023-.109-.024-.12 0-.242.01-.361 0a.341.341 0 0 1-.184-.113c-.2-.121-.481.092-.67-.2H2.6l-.043-.137c-.214-.1-.485.1-.695-.183h-.513c-.186-.307-.473-.082-.7-.2l-.024-.13H0Zm8.835-5.3v-.789l-.155-.026c0-.213.01-.414 0-.612a.757.757 0 0 0-.1-.228l-.058.018c0-.187-.005-.374 0-.561 0-.125 0-.235-.167-.234v-.761l-.161-.036v-.781c-.146.026-.159-.049-.156-.16.008-.266 0-.533 0-.8l-.056-.032a.965.965 0 0 0-.1.144c-.03.062-.039.133-.066.2a.933.933 0 0 0-.093.187c-.016.1 0 .214-.008.32a.374.374 0 0 1-.055.136c-.031.058-.088.109-.1.169-.027.148.022.368-.061.435-.133.108-.09.214-.1.325-.009.079 0 .161-.007.24 0 .04-.034.11-.055.111-.133.007-.1.1-.1.175 0 .113 0 .227-.005.34a.362.362 0 0 1-.059.133c-.03.052-.087.1-.093.152-.015.119 0 .241-.009.36a.358.358 0 0 1-.06.131c-.03.052-.083.1-.091.154-.015.1.009.2-.008.3a1.109 1.109 0 0 1-.1.237l-.057-.016c-.021.26.074.543-.218.769ZM130.525 15.701c0-.167.008-.334 0-.5-.007-.107.073-.256-.123-.3-.026-.006-.033-.134-.034-.206 0-.5 0-1-.006-1.505a.708.708 0 0 0-.089-.227l-.066.015v-.8c0-.047.064-.089.09-.138a.408.408 0 0 0 .063-.166c.005-.468 0-.936 0-1.4 0-.086-.034-.2.117-.206.017 0 .039-.076.04-.117.005-.16 0-.321 0-.481 0-.086-.035-.2.117-.206.016 0 .039-.076.04-.117v-.48l.06.015a1.228 1.228 0 0 0 .1-.237 1.716 1.716 0 0 0 .006-.28c0-.04-.005-.107.013-.116.212-.1.109-.291.153-.44a2.494 2.494 0 0 1 .21-.384.9.9 0 0 0 .1-.263c.017-.107 0-.2.12-.285.091-.061.114-.221.17-.336.12-.245.234-.493.363-.734.115-.213.244-.418.37-.624.146-.24.3-.477.445-.716a.674.674 0 0 1 .047-.087c.335-.392.662-.792 1.012-1.17a12.546 12.546 0 0 1 1.011-1 3.878 3.878 0 0 1 .58-.4 3.1 3.1 0 0 1 .4-.273c.238-.083.372-.293.576-.379s.364-.271.612-.189c.018.006.058-.037.08-.063s.033-.082.04-.08c.241.05.376-.268.632-.179.041.014.11-.055.157-.109.132-.132.389.1.493-.206.191 0 .4.007.617 0a.565.565 0 0 0 .185-.087l-.015-.069h2.589c.027 0 .071 0 .077.01.134.279.384.108.577.147.1.02.2-.006.3.008.049.007.091.059.138.087a.332.332 0 0 0 .124.065c.106.01.214 0 .319 0 .083.3.328.1.465.214.079.035.155.076.236.106.174.065.356.109.522.188.36.171.715.354 1.067.542.417.223.768.548 1.157.8a17.152 17.152 0 0 1 1.605 1.488c.12.365.492.549.637.909a3.771 3.771 0 0 0 .437.623 4.392 4.392 0 0 1 .3.508 8.76 8.76 0 0 0 .546 1.115.979.979 0 0 1 .142.483c.006.044.078.079.126.11.108.142-.122.4.165.479.1.157-.115.4.162.483.1.207-.1.48.175.684v.694l.066-.015a.891.891 0 0 1 .1.272q.009 2.1 0 4.194c0 .1.063.242-.126.262-.015 0-.03.08-.031.124v.582c0 .1.06.242-.13.257-.013 0-.026.081-.028.125 0 .12.007.242-.007.36-.006.051-.061.094-.091.143a.31.31 0 0 0-.061.122c-.009.12.006.242-.009.36-.007.056-.074.1-.092.16-.03.092-.036.192-.063.285a.53.53 0 0 1-.129.225c.042.306-.161.53-.282.779q-.268.553-.55 1.1a1.718 1.718 0 0 1-.4.652.382.382 0 0 0-.083.15c-.016.036-.011.084-.033.113-.221.284-.449.562-.667.849-.1.128-.158.286-.266.4a8.132 8.132 0 0 1-.77.762c-.286.237-.61.427-.915.642a1.242 1.242 0 0 0-.211.184 2.022 2.022 0 0 1-.731.455c-.269.12-.516.291-.786.408-.231.1-.432.321-.732.194-.072.337-.329.113-.5.21.015.188-.139.125-.256.137s-.285-.085-.249.159h-.544c-.1 0-.238-.045-.27.129 0 .017-.082.029-.125.029h-3.094c-.06 0-.119-.063-.169-.117-.2-.12-.485.1-.662-.2h-.358c-.1 0-.207.025-.242-.117-.005-.021-.066-.048-.092-.041-.274.076-.451-.143-.669-.225a9.579 9.579 0 0 1-.869-.426.34.34 0 0 1-.054-.026c-.23-.171-.458-.345-.69-.513-.355-.257-.727-.493-1.063-.773a5.392 5.392 0 0 1-.578-.643c-.1-.11-.18-.23-.278-.337a4.376 4.376 0 0 1-.363-.374c-.176-.247-.327-.513-.49-.77-.021-.033-.05-.061-.071-.094-.136-.214-.279-.425-.4-.646-.153-.27-.3-.546-.434-.825a2.393 2.393 0 0 0-.219-.495c-.145-.171-.074-.428-.171-.529-.156-.163-.063-.386-.155-.47-.179-.164-.061-.419-.162-.506-.262-.225-.08-.49-.147-.722a.922.922 0 0 0-.092-.175Zm11.223 3.725-.005-.041c.043-.04.091-.118.127-.112.294.042.5-.144.732-.263a2.433 2.433 0 0 1 .417-.213 2.765 2.765 0 0 0 .735-.47 1.931 1.931 0 0 0 .678-.792c.161-.339.427-.626.606-.958a2.136 2.136 0 0 0 .446-1.079c0-.022.018-.064.034-.066.164-.029.112-.155.116-.252.005-.126 0-.253 0-.4.206.014.157-.131.16-.243s0-.253 0-.408c.2.047.16-.086.16-.192 0-.461 0-.923.005-1.384 0-.066.085-.128.093-.2.019-.156.016-.315.022-.473-.153 0-.117-.12-.117-.2 0-.354 0-.709-.006-1.063a.72.72 0 0 0-.091-.226l-.066.015v-.379c0-.126.051-.269-.14-.257a1.529 1.529 0 0 0-.062-.422c-.125-.269-.3-.514-.424-.786a2.267 2.267 0 0 0-.393-.694c-.124-.131-.183-.322-.305-.456a5.723 5.723 0 0 0-1.779-1.428c-.172-.079-.311-.269-.545-.21-.122.03-.237.008-.23-.163h-.449l-.025-.155h-1.415a.7.7 0 0 0-.231.1l.017.058h-.32a.262.262 0 0 0-.113.025c-.08.043-.155.1-.232.142-.163.1-.327.193-.49.291a1.758 1.758 0 0 0-.309.194c-.36.337-.73.667-1.058 1.035a4.269 4.269 0 0 0-.387.682 4.336 4.336 0 0 1-.332.482c-.228.288-.237.665-.416.973a.905.905 0 0 0-.181.6c0 .016-.014.05-.025.051-.181.025-.115.164-.12.264-.008.14 0 .281-.006.421a.368.368 0 0 1-.058.135c-.031.059-.092.115-.094.174-.01.314 0 .629-.01.943 0 .059-.067.115-.1.174a.281.281 0 0 0-.053.112v.66l.061-.015a.737.737 0 0 1 .095.234c.01.359 0 .719 0 1.079l.068-.021a.6.6 0 0 1 .089.174c.015.105-.009.216.008.32a1 1 0 0 0 .1.229c.127.137-.075.381.2.461.082.162-.124.415.187.492-.081.311.106.537.237.776.1.188.235.361.355.539.21.312.4.637.636.931a3.544 3.544 0 0 0 1.243.89c.2.1.4.284.669.2.01 0 .025.006.038.009.049.079.116.143.183.144.691.015 1.377.012 2.07.012ZM128.435 8.214v.583l.061-.017a1.134 1.134 0 0 1 .1.23c.017.091-.009.189.008.28a1.16 1.16 0 0 0 .1.233l.06-.016v.9l.061-.016a.687.687 0 0 1 .1.231q.009 1.806 0 3.612c0 .088.044.211-.119.228-.018 0-.037.089-.038.137 0 .214.005.428-.007.642 0 .06-.069.114-.1.174a.339.339 0 0 0-.052.132c-.007.14 0 .282-.005.421-.007.1.058.239-.129.265-.019 0-.016.133-.03.2-.021.1.075.253-.132.281-.022 0-.024.182-.027.28s.011.214-.171.183c.077.333-.125.562-.249.818l-.551 1.141a.274.274 0 0 1-.025.054c-.226.288-.458.572-.679.865a3.709 3.709 0 0 1-.209.346c-.38.4-.764.789-1.166 1.162-.275.255-.58.478-.876.709a5.239 5.239 0 0 1-.464.322c-.086.054-.2.069-.282.124a2.736 2.736 0 0 1-.532.355c-.205.067-.366.276-.619.21-.036-.009-.089.048-.135.073l-.145.081c-.059.033-.117.068-.178.1a.408.408 0 0 1-.135.06c-.1.009-.2 0-.3 0-.062.146-.062.146-.492.168-.075.3-.323.081-.495.186l-.038.127h-.589l.018.059a.846.846 0 0 1-.225.1 3.528 3.528 0 0 1-.4 0 .738.738 0 0 0-.268.094c-.183.073-.319.236-.551.234-1.607-.013-3.215-.007-4.822-.007h-.221c0-.188.008-.361 0-.532-.007-.106.078-.259-.123-.3-.023 0-.032-.122-.033-.187v-7.124c0-.086.055-.211-.113-.222-.016 0-.036-.066-.04-.1-.007-.073-.006-.147-.006-.22V9.03c0-.087.049-.2-.114-.226-.025 0-.043-.142-.043-.218V5.952h-.8V5c0-.076.041-.176-.1-.193-.026 0-.054-.111-.055-.171-.006-.267 0-.535-.007-.8 0-.047-.059-.09-.082-.138a.494.494 0 0 1-.071-.186c-.007-.307 0-.615 0-.923 0-.081.03-.174-.108-.19-.024 0-.049-.113-.05-.174-.005-.314 0-.629-.007-.943 0-.053-.059-.1-.088-.157a.385.385 0 0 1-.062-.135c-.01-.105 0-.212 0-.33h1.417l.048-.166h4.78c.007.136.088.165.219.16.294-.011.589 0 .884 0l-.015.06a1.035 1.035 0 0 0 .272.1c.24.014.481 0 .734 0l.029.14c.218.083.484-.086.712.173h.367c.068.307.314.105.488.193.066.283.326.063.467.2.072.034.152.107.214.095.229-.047.365.135.541.2a6.9 6.9 0 0 1 .982.482c.253.149.459.382.718.512.344.172.545.516.862.685a2.126 2.126 0 0 1 .8.7 10.736 10.736 0 0 0 .688.831c.164.206.239.486.413.681a3.783 3.783 0 0 1 .522.881c.035.07.058.146.1.214a1.943 1.943 0 0 0 .151.194 1.057 1.057 0 0 0 .289.749c.091.13-.148.394.168.47Zm-9.068 10.553c.092-.043.33.144.427-.13 0-.012.049-.01.076-.013.225-.032.4-.238.657-.173.016 0 .045-.061.075-.085q.339-.268.681-.531c.019-.014.054-.005.077-.016a.731.731 0 0 0 .2-.1 7.19 7.19 0 0 0 .953-1.089 6.882 6.882 0 0 0 .492-.787.836.836 0 0 0 .128-.481c0-.03.037-.062.054-.095a1.065 1.065 0 0 0 .1-.2c.024-.088.006-.251.041-.261.183-.053.113-.188.121-.294s0-.238 0-.357l.046.019c.038-.054.109-.106.109-.16.007-.968 0-1.937 0-2.915l-.16-.031v-.632c0-.046 0-.129-.016-.132-.225-.05-.116-.23-.144-.355-.011-.048-.019-.135-.037-.137-.16-.019-.111-.141-.123-.231a.713.713 0 0 0-.016-.2c-.1-.222-.219-.439-.334-.656a1.763 1.763 0 0 0-.238-.4 7.043 7.043 0 0 0-2.031-1.686c-.177-.083-.325-.278-.564-.21-.133.037-.21-.023-.211-.14-.174-.085-.422.126-.5-.18h-.468c-.043 0-.116-.014-.123-.036-.064-.216-.217-.092-.342-.114 0 .66 0 1.3.006 1.943 0 .064.078.127.119.191l.038-.018v7.337c.2-.051.158.084.158.189V18.97c.245-.093.505.093.75-.203ZM17.039 6.579h-.48a.706.706 0 0 0-.125-.4c-.08-.156-.024-.378-.041-.571a.656.656 0 0 0-.085-.192l-.072.018c0-.206.008-.413 0-.618a.661.661 0 0 0-.1-.2l-.062.016c0-.206.007-.413 0-.619a.621.621 0 0 0-.081-.192l-.076.018c0-.206.008-.412 0-.618a.674.674 0 0 0-.09-.208l-.066.016c0-.18.005-.359 0-.539 0-.1.036-.194-.108-.277-.077-.045-.048-.27-.069-.434h.807l.028-.168h1.261l.016-.165h2.548l.023-.156h.751l-.015.057a.9.9 0 0 0 .269.094c.723.008 1.446 0 2.169 0l-.015.06a.791.791 0 0 0 .233.1c.206.014.415 0 .622.009a.635.635 0 0 1 .2.086l-.025.067h.593c.051.145.051.145.483.172.08.293.332.071.465.179.052.045.113.135.153.126.268-.058.447.135.654.228a4.978 4.978 0 0 1 .557.369c.22.137.451.257.671.394a1.416 1.416 0 0 1 .241.208c.346.345.715.671 1.025 1.045a6.19 6.19 0 0 1 .6.966 3.629 3.629 0 0 0 .365.738c.17.182.092.355.13.53a1.444 1.444 0 0 0 .1.233l.062-.015v1.061l.061-.016a.728.728 0 0 1 .1.231c.011.3.007.6 0 .9 0 .086.032.2-.117.21-.019 0-.04.088-.041.136 0 .261.006.522-.007.783a.822.822 0 0 1-.1.244l-.059-.02c0 .126.005.253 0 .379-.006.11.052.264-.172.243.085.333-.129.553-.243.8-.126.276-.26.548-.391.822a.3.3 0 0 1-.025.054c-.175.234-.352.466-.524.7a.75.75 0 0 0-.084.172c-.011.03.006.079-.012.1-.088.087-.242.141-.046.292.094.073.131.218.2.328a.283.283 0 0 0 .067.074 3.679 3.679 0 0 1 .776 1.2 1.238 1.238 0 0 1 .145.5c.006.043.079.078.158.149.078.157-.147.446.155.631 0 .884 0 1.793-.005 2.7 0 .061-.071.121-.124.173-.1.141.105.388-.2.472.079.308-.13.529-.247.781a4.183 4.183 0 0 1-.2.387 2.122 2.122 0 0 1-.266.386c-.328.343-.677.667-1 1.012a1.994 1.994 0 0 1-.745.465.992.992 0 0 0-.254.219c-.028.026-.059.086-.077.082-.241-.055-.419.1-.621.175-.019.007-.049 0-.056.016-.124.215-.34.114-.5.143-.17.314-.453.066-.671.19 0 .1-.073.148-.21.132a3.65 3.65 0 0 0-.421 0l.017.058a.7.7 0 0 1-.225.1c-.261.012-.523 0-.783.009a.632.632 0 0 0-.2.087l.019.062h-6.106c0-.267.005-.538 0-.809 0-.051-.061-.1-.092-.151a.345.345 0 0 1-.058-.114 1.544 1.544 0 0 1-.007-.22V16.12c0-.089.066-.225-.115-.24-.016 0-.034-.067-.037-.1-.007-.073-.006-.147-.006-.22V8.576c0-.091.06-.22-.117-.243-.022 0-.039-.131-.04-.2-.012-.517-.01-1.022-.01-1.554Zm5.477 5.961a1.611 1.611 0 0 0 .444-.056c.3-.13.578-.292.862-.446a2.242 2.242 0 0 0 .528-.312 5.051 5.051 0 0 0 1.163-1.31.589.589 0 0 0 .044-.147c.023-.124-.062-.29.141-.346.016 0 .02-.073.02-.111V8.628c0-.041-.039-.081-.061-.121-.031-.057-.092-.113-.091-.169a1.013 1.013 0 0 0-.319-.713 2.148 2.148 0 0 0-.767-.623c-.272-.1-.495-.341-.835-.25l-.027-.174h-.776l-.027-.144h-.783v3.822l.067-.014a.572.572 0 0 1 .081.191c.006.548 0 1.1 0 1.645v.6h.307Zm-.162 4v3.045h.623l.019-.155h.785l.022-.187c.293.138.492-.086.728-.159a1.722 1.722 0 0 0 .457-.277c.086-.061.149-.154.232-.221a.433.433 0 0 0 .184-.412c-.007-.058.021-.169.046-.173.133-.022.112-.114.108-.2a1.218 1.218 0 0 0-1.217-1.265 2.683 2.683 0 0 1-.361 0 .982.982 0 0 1-.236-.1l.006-.083c-.088.028-.177.053-.263.086-.069.027-.132.093-.2.1-.307.003-.614-.002-.933-.002ZM39.372 1.927h.822c.111 0 .187-.009.153-.154h1.9l-.016.048a.772.772 0 0 0 .233.1c.213.014.429 0 .643.01.059 0 .116.058.174.09l-.021.061h.593c.085.3.329.1.464.219.079.035.155.075.236.105a3.126 3.126 0 0 1 .538.2 6.534 6.534 0 0 1 1.257.716 3.909 3.909 0 0 0 .666.4 1.3 1.3 0 0 1 .224.2c.553.554 1.117 1.1 1.651 1.669a4.691 4.691 0 0 1 .466.717.427.427 0 0 0 .062.1c.3.255.376.647.569.967a5.954 5.954 0 0 1 .423.848c.086.213.312.378.238.656-.01.038.073.1.124.144.113.2-.116.487.182.656.075.139-.126.383.168.467v.9l.058-.017c.035.077.1.155.1.232q.01 1.886 0 3.772c0 .086.051.212-.114.232-.02 0-.041.087-.043.134-.005.181.006.362-.005.542-.007.108.078.27-.135.292-.011 0-.021.072-.022.111v.361c0 .04 0 .109-.018.113-.226.069-.105.257-.144.39a.443.443 0 0 1-.128.172c-.1.142.1.386-.168.466-.1.152.118.4-.188.487.077.314-.137.538-.257.8l-.223.485c-.008.018-.01.042-.023.054a2.576 2.576 0 0 0-.51.839c-.05.1-.159.162-.227.252a5.6 5.6 0 0 1-.366.5 14.124 14.124 0 0 1-1.4 1.376 3.577 3.577 0 0 1-1.218.818c-.081.022-.139.121-.216.171s-.179.1-.269.146a1.124 1.124 0 0 0-.131.079c-.024.018-.047.071-.057.068a.656.656 0 0 0-.611.191.947.947 0 0 1-.567.139c-.071.311-.329.066-.453.216a.872.872 0 0 1-.229.1c-.139.016-.281 0-.421.005-.09 0-.193-.022-.219.116 0 .021-.076.042-.116.042h-3.052l.016-.061a.9.9 0 0 0-.235-.1c-.152-.015-.308 0-.461-.009a.336.336 0 0 1-.185-.113c-.135-.128-.393.108-.476-.211-.328.087-.557-.143-.822-.269-.137-.065-.276-.127-.409-.2-.1-.056-.2-.13-.3-.193a4.821 4.821 0 0 0-.231-.136c-.023-.013-.053-.015-.073-.03-.246-.184-.487-.376-.738-.554a4.877 4.877 0 0 1-.97-.812c-.117-.14-.2-.306-.32-.446-.155-.184-.344-.34-.485-.532-.172-.233-.309-.493-.464-.74-.109-.174-.224-.343-.332-.517s-.207-.334-.3-.505-.2-.37-.288-.559a.606.606 0 0 1-.036-.173c-.016-.11.057-.246-.127-.3-.038-.012-.025-.184-.034-.283-.006-.073.026-.153-.1-.18-.035-.008-.045-.147-.061-.226-.02-.1.06-.231-.123-.264-.025 0-.033-.145-.037-.224-.006-.12 0-.24 0-.35-.315-.161-.07-.45-.214-.639a.731.731 0 0 1-.1-.237c-.012-.3-.005-.6-.005-.9l-.054.014a.7.7 0 0 1-.1-.239q-.01-1.344 0-2.689c0-.057.069-.112.1-.172a.389.389 0 0 0 .053-.153c.006-.247 0-.495 0-.742 0-.1-.049-.226.126-.24.014 0 .029-.08.031-.124v-.361c0-.039 0-.109.014-.113.255-.066.109-.269.144-.408.026-.1-.061-.245.129-.288.028-.006.027-.157.032-.242s-.017-.179.106-.229c.041-.016.047-.137.054-.211.01-.108-.012-.2.117-.285a.563.563 0 0 0 .162-.326c.052-.208.258-.36.209-.6a.135.135 0 0 1 .031-.111c.352-.281.425-.723.643-1.081.14-.229.314-.437.466-.66a14.973 14.973 0 0 1 1.738-1.893c.036-.038.081-.1.118-.1.215.016.289-.167.414-.276s.188-.251.376-.226c.02 0 .049-.022.065-.041.268-.338.7-.4 1.036-.612a.863.863 0 0 1 .5-.148c.024 0 .052-.044.073-.072s.032-.073.048-.074c.264-.011.473-.257.762-.173.094.021.197.007.14-.165Zm1.256 4.915v.054c-.139.009-.344-.035-.4.038-.138.168-.345.163-.5.282-.2.155-.451.244-.649.4a4.7 4.7 0 0 0-.6.593c-.179.2-.333.429-.5.646a.7.7 0 0 0-.041.089c-.049.089-.1.18-.152.264-.041.06-.124.1-.138.168-.076.331-.4.566-.362.941 0 .032-.037.068-.055.1l-.1.2-.055.122a1.135 1.135 0 0 0-.1.226c-.027.128.016.322-.057.378-.155.118-.094.252-.105.383-.01.113 0 .228-.006.341 0 .041-.027.114-.048.116-.136.014-.109.11-.109.193v2.047a.7.7 0 0 0 .093.23l.068-.016v.778c.167-.048.155.053.158.154a2.217 2.217 0 0 0 .04.453 1.517 1.517 0 0 0 .169.323c.029.027.108.069.1.1a.906.906 0 0 0 .149.539 2.176 2.176 0 0 0 .406.667.459.459 0 0 1 .066.1c.19.288.37.583.572.863a3.013 3.013 0 0 0 .878.7 1 1 0 0 0 .664.277.345.345 0 0 1 .163.06c.055.028.105.09.159.092.26.01.521 0 .746 0l.156.16.11-.162h1.059l.041-.142a1.769 1.769 0 0 0 .431-.05 5.273 5.273 0 0 0 .562-.29 2.2 2.2 0 0 0 .453-.249c.313-.282.6-.588.9-.887a1.273 1.273 0 0 0 .182-.212c.155-.249.31-.5.451-.755a3.831 3.831 0 0 1 .225-.486.8.8 0 0 0 .158-.549c0-.018.038-.034.05-.056a.972.972 0 0 0 .1-.2c.024-.088.007-.251.042-.261.172-.048.116-.173.12-.275.007-.14 0-.281.005-.421a.34.34 0 0 1 .053-.132c.032-.059.1-.113.1-.171.009-.455 0-.91.007-1.365 0-.07 0-.181.044-.2.249-.134.069-.174-.05-.233v-1.393l-.161-.033v-.61l-.063.016c-.03-.057-.093-.119-.085-.169.044-.265-.159-.432-.239-.646a4.6 4.6 0 0 0-.257-.545 3.693 3.693 0 0 0-.313-.52c-.176-.229-.451-.376-.537-.682-.018-.066-.105-.116-.168-.164-.172-.131-.348-.257-.523-.384a4.12 4.12 0 0 0-.194-.131 2.024 2.024 0 0 1-.246-.154 1.039 1.039 0 0 0-.769-.33h-.123l-.029-.161a4.2 4.2 0 0 1-.453 0 .81.81 0 0 1-.225-.1l.018-.056c-.362 0-.723-.005-1.084 0a.628.628 0 0 0-.203.096ZM102.3 12.803a.825.825 0 0 1 .091.231c.013.193 0 .387 0 .58l.058-.016a.855.855 0 0 1 .1.232c.016.152 0 .308.008.461a.669.669 0 0 0 .079.192l.074-.013v.756l.069-.015a.805.805 0 0 1 .092.231c.013.193 0 .387 0 .58l.058-.016a.785.785 0 0 1 .1.233c.014.206 0 .415.009.621a.633.633 0 0 0 .081.195l.072-.018v.757l.067-.015a.8.8 0 0 1 .093.231c.014.193 0 .387 0 .58l.057-.017a.884.884 0 0 1 .1.232 2.48 2.48 0 0 1 0 .421c-.006.121 0 .226.163.218v.757l.061-.016a.8.8 0 0 1 .094.231c.014.193 0 .387 0 .581l.055-.017a.861.861 0 0 1 .1.232 3.648 3.648 0 0 1 0 .441c0 .109-.028.234.161.188v.929l.063-.016a1.2 1.2 0 0 1 .094.23 1.514 1.514 0 0 1 0 .26c0 .175-.056.369.194.466l-.041.05h-.261c-.087 0-.212-.046-.228.118 0 .018-.088.039-.136.04h-.622l.018.059a.755.755 0 0 1-.226.1c-.2.014-.4 0-.613 0l-.028.156h-.763l-.05.165c-.254 0-.5-.008-.749 0a.772.772 0 0 0-.234.094l.015.061h-.46c-.133 0-.258-.012-.362.117-.041.052-.167.037-.238.05-.13-.225.109-.516-.193-.706v-.716l-.166-.058c0-.175.006-.349 0-.522-.005-.1.069-.247-.123-.278-.019 0-.032-.1-.033-.148v-.63H95.345c-.112 0-.224.017-.191-.156h-.479a3.1 3.1 0 0 1 0 .356c-.012.108.076.265-.133.3-.022 0-.016.16-.025.244s.043.212-.121.227c-.016 0-.036.076-.038.117-.005.12.008.242-.008.36-.007.055-.066.1-.1.155a.272.272 0 0 0-.053.11c-.007.113.01.229-.008.34a1.009 1.009 0 0 1-.1.238l-.054-.014a1.705 1.705 0 0 1-.007.4 1.113 1.113 0 0 1-.181.316.1.1 0 0 1-.09.006c-.13-.215-.339-.061-.5-.111a.672.672 0 0 1-.219-.118c-.193-.12-.466.089-.678-.209-.148-.08-.436.152-.631-.152h-.571l-.026-.158h-.6l-.042-.136c-.215-.1-.486.1-.688-.175a3.3 3.3 0 0 1-.523-.054c-.079-.019-.134-.137-.2-.21l.062-.005a2.444 2.444 0 0 0 .073-.311 3.332 3.332 0 0 0 0-.36l.054.016a1.035 1.035 0 0 0 .1-.235 1.99 1.99 0 0 0 .005-.32c0-.034-.008-.091.005-.1.3-.123.095-.379.156-.563a.592.592 0 0 1 .064-.121c.029-.047.086-.09.09-.138.012-.153 0-.307 0-.459.149-.076.149-.076.166-.642.321-.152.064-.452.178-.652.3-.158.046-.446.167-.648.295-.148.038-.438.164-.646.3-.139.027-.434.169-.644.272-.14.035-.426.185-.614a1.329 1.329 0 0 0 .094-.256 2.343 2.343 0 0 0 .005-.32c0-.033 0-.091.014-.093.239-.049.116-.238.145-.366s-.081-.288.138-.329c.014 0 .021-.072.021-.111v-.461l.061.015a2.734 2.734 0 0 0 .1-.275c.04-.161-.092-.372.151-.478.027-.012 0-.126.013-.192.013-.1-.042-.224.122-.255.019 0 .034-.079.035-.122v-.459c.32-.15.076-.437.223-.628a1.6 1.6 0 0 0 .1-.293 2.649 2.649 0 0 0 0-.36c.316-.17.068-.458.186-.658.3-.149.037-.441.169-.648.289-.142.03-.433.16-.643.3-.136.023-.432.181-.615a1.049 1.049 0 0 0 .1-.236 1.963 1.963 0 0 0 .005-.32c0-.033-.007-.091.006-.1.3-.123.094-.379.156-.563a.594.594 0 0 1 .064-.12c.029-.047.086-.091.089-.139.012-.153 0-.307 0-.459.32-.15.078-.438.188-.652.3-.142.042-.441.155-.641.3-.157.047-.446.166-.648.3-.148.035-.44.169-.647.288-.141.03-.432.158-.641.281-.143.041-.429.182-.616a1.061 1.061 0 0 0 .1-.236 2 2 0 0 0 .005-.32c0-.033-.008-.091.006-.1.295-.124.1-.38.156-.564.013-.04.03-.11.048-.111.143-.007.107-.109.11-.189s0-.186 0-.29h5.619c.027.123-.047.3.151.357.021.006.016.112.017.171v.542l.061-.015a1.107 1.107 0 0 1 .1.27c.015.186 0 .373 0 .56l.061-.016a.77.77 0 0 1 .1.232c.012.247 0 .494 0 .742l.056-.017a.774.774 0 0 1 .1.231c.015.193 0 .387 0 .581l.06-.015a1.081 1.081 0 0 1 .1.27c.015.186 0 .373 0 .56l.06-.016a.867.867 0 0 1 .1.232c.016.152 0 .308.009.461a.68.68 0 0 0 .083.2l.066-.018v.738l.07-.014a1.294 1.294 0 0 1 .094.288c.015.179 0 .36 0 .54l.06-.016a.862.862 0 0 1 .1.232c.016.152 0 .308.008.461a.687.687 0 0 0 .083.2l.073-.017c0 .253-.007.506 0 .758a.757.757 0 0 0 .092.23l.062-.016v.757c.168-.009.17.1.164.218a3.3 3.3 0 0 0 0 .441.692.692 0 0 0 .081.2l.071-.017v.756Zm-4.888.552-.062.016a.766.766 0 0 1-.092-.226c-.013-.2 0-.409 0-.643-.066.029-.107.044-.144.065-.2.112-.186.3-.181.488 0 .087-.014.243-.049.25-.145.033-.1.131-.11.216-.016.143.015.342-.066.414-.1.092-.087.173-.093.268s0 .188-.007.28a.373.373 0 0 1-.067.126c-.028.047-.078.091-.084.14-.013.119 0 .241-.008.36a.375.375 0 0 1-.055.137c-.031.058-.089.11-.1.17-.016.111 0 .227-.009.34a.353.353 0 0 1-.058.134c-.029.052-.086.1-.094.151-.015.1.009.215-.009.32a.908.908 0 0 1-.1.219l-.052-.016c-.024.261.077.546-.211.765h2.292v-.78l-.155-.027c0-.213.01-.414 0-.613a.748.748 0 0 0-.1-.228l-.057.018c0-.2.008-.4 0-.6a.674.674 0 0 0-.093-.208l-.063.016c0-.2.01-.4 0-.6a.772.772 0 0 0-.1-.228l-.06.017ZM68.811 2.092h14.455v1.919a.61.61 0 0 0 .08.2l.067-.017v2.711h-4.546a.373.373 0 0 0-.427.423v4.374c0 .1-.038.226.151.178v12.67h-4.8v-.441l-.068.015a1.553 1.553 0 0 1-.1-.22.693.693 0 0 1 0-.18V10.48c0-.087.051-.2-.113-.227-.025 0-.044-.142-.044-.217V7.072h-4.65Z"/></svg>