<svg xmlns="http://www.w3.org/2000/svg" width="216.691" height="46.119"><defs><style>.a{fill:#140902}.a{fill-rule:evenodd}</style></defs><path class="a" d="M188.574 33.994a4.929 4.929 0 0 0-5 5 4.939 4.939 0 1 0 9.878 0 4.9 4.9 0 0 0-4.878-5Zm0 7.825a2.887 2.887 0 1 1 2.825-2.825 2.847 2.847 0 0 1-2.825 2.825ZM215.644 6.8h-35.02c-.898-4.363-4.618-6.8-8.852-6.8a1.027 1.027 0 1 0 0 2.052 6.763 6.763 0 0 1 6.8 5.516l3.464 20.14a6.177 6.177 0 0 0 6.028 5.132h20.91a1.091 1.091 0 0 0 0-2.181h-20.91a3.785 3.785 0 0 1-3.977-3.207l-.257-1.411h23.09a6.172 6.172 0 0 0 6.029-4.746l3.72-12.956a1.331 1.331 0 0 0-1.025-1.539Zm-4.618 14.11a4.272 4.272 0 0 1-4.1 3.079h-23.48c-.9-5.388-1.8-10.262-2.566-15.137h33.353c-1.026 3.976-2.053 7.568-3.207 12.058ZM203.073 33.994a4.9 4.9 0 0 0-4.875 5 4.939 4.939 0 1 0 9.878 0 4.929 4.929 0 0 0-5.003-5Zm0 7.825a2.847 2.847 0 0 1-2.823-2.825 2.887 2.887 0 1 1 2.822 2.822Z"/><path d="M15.01 20.84a10.931 10.931 0 0 1-5.619-9.81 10.752 10.752 0 0 1 3.975-8.347 11.1 11.1 0 0 1 15.467.97 10.719 10.719 0 0 1 2.838 9.229 10.84 10.84 0 0 1-5.517 7.967c.6.185 1.164.314 1.693.525a19.53 19.53 0 0 1 4.865 2.634 28.225 28.225 0 0 1 2.588 2.184 20.318 20.318 0 0 1 5.526 10.6c.165.949.213 1.918.361 2.871a1.229 1.229 0 0 1-.383 1.262 2.434 2.434 0 0 1-.658.29.6.6 0 0 1-.2.005H1.256A1.211 1.211 0 0 1 0 39.972a17.355 17.355 0 0 1 .558-4.127 19.967 19.967 0 0 1 1.562-4.324 19.363 19.363 0 0 1 2.747-4.184A18.5 18.5 0 0 1 6.681 25.4a21.618 21.618 0 0 1 3.532-2.534 18.9 18.9 0 0 1 3.844-1.721c.302-.093.599-.193.953-.305Zm23.458 18.093c.072-.043.407.161.362-.207a19.745 19.745 0 0 0-.349-2.183 19.2 19.2 0 0 0-1.923-5.043 16.474 16.474 0 0 0-2.482-3.377 18.264 18.264 0 0 0-2.275-2.05 21.968 21.968 0 0 0-3.061-1.9 14.415 14.415 0 0 0-4.7-1.505c-1-.126-2-.264-3.008-.331a11.523 11.523 0 0 0-1.974.065 21.831 21.831 0 0 0-2.924.427 17.867 17.867 0 0 0-4.826 1.948 18.173 18.173 0 0 0-5.113 4.443 17.508 17.508 0 0 0-3.153 6.146c-.286 1.024-.442 2.086-.628 3.134-.082.466-.048.471.446.44a5.61 5.61 0 0 1 .343-.009ZM19.891 20.141A9.306 9.306 0 0 0 26.98 17.5a8.634 8.634 0 0 0 2.573-6.438 8.958 8.958 0 0 0-17.914.02 8.649 8.649 0 0 0 3.033 6.738 8.289 8.289 0 0 0 5.219 2.321Z" transform="translate(82.983 2.768)" style="fill:#140902"/><g transform="translate(1.5 5.536)"><circle cx="14.486" cy="14.486" r="14.486" style="stroke-miterlimit:10;fill:none;stroke:#140902;stroke-width:3px"/><path transform="translate(23.477 25.975)" style="stroke-linecap:round;stroke-linejoin:round;fill:none;stroke:#140902;stroke-width:3px" d="m0 0 11.489 12.488"/></g></svg>