<svg xmlns="http://www.w3.org/2000/svg" width="150.456" height="26.415"><defs><clipPath id="a"><path style="fill:none" d="M0 0h150.456v26.415H0z"/></clipPath></defs><g style="clip-path:url(#a)"><path d="m14.7.892 3.257 6.6a1.221 1.221 0 0 0 .92.668l7.282 1.058a1.222 1.222 0 0 1 .677 2.084l-5.269 5.136a1.222 1.222 0 0 0-.351 1.081l1.244 7.253a1.222 1.222 0 0 1-1.772 1.288l-6.518-3.425a1.221 1.221 0 0 0-1.137 0L6.52 26.059a1.222 1.222 0 0 1-1.773-1.288l1.244-7.253a1.222 1.222 0 0 0-.351-1.081L.37 11.301a1.222 1.222 0 0 1 .677-2.084l7.282-1.058a1.221 1.221 0 0 0 .92-.668l3.257-6.6a1.222 1.222 0 0 1 2.191 0M45.457.892l3.257 6.6a1.221 1.221 0 0 0 .92.668l7.282 1.058a1.222 1.222 0 0 1 .677 2.084l-5.269 5.136a1.222 1.222 0 0 0-.351 1.081l1.244 7.253a1.222 1.222 0 0 1-1.772 1.288l-6.513-3.424a1.221 1.221 0 0 0-1.137 0l-6.513 3.424a1.222 1.222 0 0 1-1.773-1.288l1.244-7.253a1.222 1.222 0 0 0-.351-1.081l-5.269-5.136a1.222 1.222 0 0 1 .677-2.084l7.276-1.059a1.221 1.221 0 0 0 .92-.668l3.257-6.6a1.222 1.222 0 0 1 2.191 0M76.217.892l3.257 6.6a1.221 1.221 0 0 0 .92.668l7.282 1.058a1.222 1.222 0 0 1 .677 2.084l-5.269 5.136a1.222 1.222 0 0 0-.351 1.081l1.244 7.253a1.222 1.222 0 0 1-1.772 1.288l-6.513-3.424a1.221 1.221 0 0 0-1.137 0l-6.513 3.424a1.222 1.222 0 0 1-1.773-1.288l1.244-7.253a1.222 1.222 0 0 0-.351-1.081l-5.269-5.136a1.222 1.222 0 0 1 .677-2.084l7.282-1.058a1.221 1.221 0 0 0 .92-.668l3.257-6.6a1.222 1.222 0 0 1 2.191 0M106.978.892l3.257 6.6a1.221 1.221 0 0 0 .92.668l7.282 1.058a1.222 1.222 0 0 1 .677 2.084l-5.269 5.136a1.223 1.223 0 0 0-.351 1.081l1.244 7.253a1.222 1.222 0 0 1-1.772 1.288l-6.513-3.424a1.221 1.221 0 0 0-1.137 0l-6.513 3.424a1.222 1.222 0 0 1-1.773-1.288l1.244-7.253a1.222 1.222 0 0 0-.351-1.081l-5.269-5.136a1.222 1.222 0 0 1 .677-2.084l7.282-1.058a1.221 1.221 0 0 0 .92-.668l3.257-6.6a1.222 1.222 0 0 1 2.191 0"/><path d="m594.993 1.68 3.257 6.6a1.221 1.221 0 0 0 .92.668l7.282 1.058a1.222 1.222 0 0 1 .677 2.084l-5.269 5.136a1.222 1.222 0 0 0-.351 1.081l1.244 7.253a1.222 1.222 0 0 1-1.772 1.288l-6.513-3.424a1.221 1.221 0 0 0-1.137 0l-6.513 3.424a1.222 1.222 0 0 1-1.773-1.288l1.244-7.253a1.222 1.222 0 0 0-.351-1.081l-5.269-5.136a1.222 1.222 0 0 1 .677-2.084l7.282-1.058a1.221 1.221 0 0 0 .92-.668l3.257-6.6a1.222 1.222 0 0 1 2.188 0Z" transform="translate(-457.255 -.788)" style="stroke:#000;stroke-miterlimit:10;stroke-width:2px;fill:none"/><path d="M136.607 22.495a1.22 1.22 0 0 0-.533.14l-6.513 3.424a1.221 1.221 0 0 1-1.772-1.288l1.244-7.253a1.221 1.221 0 0 0-.351-1.081l-5.269-5.136a1.222 1.222 0 0 1 .677-2.084l7.282-1.058a1.222 1.222 0 0 0 .92-.668l3.257-6.6a1.207 1.207 0 0 1 1.096-.679Z"/></g></svg>