<svg xmlns="http://www.w3.org/2000/svg" width="194.805" height="191.27"><defs><clipPath id="a"><path class="a" d="M0 0h194.805v191.27H0z"/></clipPath><clipPath id="b"><path class="a" d="M0 0h96.961v91.703H0z"/></clipPath><clipPath id="d"><path class="a" d="M0 0h97.605v92.285H0z"/></clipPath><clipPath id="e"><path class="a" d="M0 0h29.001v27.917H0z"/></clipPath><style>.a,.g{fill:none}.b{fill:#fff}.c{clip-path:url(#a)}.g{stroke:#000;stroke-width:9px}.e{isolation:isolate}.g{stroke-miterlimit:10}</style></defs><path class="b" d="m46.896 139.056 73.823 48.19 70.062-78.266-42.033-24.265"/><g class="c"><path d="m52.448 149.086 73.823 48.19 70.062-78.266L154.3 94.745" transform="translate(-5.552 -10.03)" style="stroke-linecap:round;stroke-linejoin:round;stroke:#000;stroke-width:9px;fill:none"/><g style="clip-path:url(#b)" transform="translate(61.03)" class="e"><path class="b" d="M6.578 7.252c8.182-8.882 33.576 1.2 56.718 22.517s35.269 45.8 27.087 54.684-33.576-1.2-56.718-22.517S-1.605 16.134 6.578 7.252"/><path class="g" d="M6.578 7.252c8.182-8.882 33.576 1.2 56.718 22.517s35.269 45.8 27.087 54.684-33.576-1.2-56.718-22.517S-1.605 16.134 6.578 7.252Z"/></g></g><path class="b" d="m151.289 84.7-59.985 65.117L7.386 72.51 67.371 7.395"/><g class="c"><path class="g" d="m151.289 84.7-59.985 65.117L7.386 72.51 67.371 7.395"/><g style="clip-path:url(#d)" transform="translate(0 65.61)" class="e"><path class="b" d="M6.559 7.228c8.182-8.882 33.729 1.34 57.059 22.832s35.611 46.116 27.429 55-33.729-1.34-57.059-22.833-35.611-46.115-27.429-55"/><path class="g" d="M6.559 7.228c8.182-8.882 33.729 1.34 57.059 22.832s35.611 46.116 27.429 55-33.729-1.34-57.059-22.833S-1.623 16.11 6.559 7.228Z"/></g><g style="clip-path:url(#e)" transform="translate(32.857 99.363)" class="e"><path class="b" d="M4.864 5.083c2.268-2.462 8.42-.483 13.742 4.419s7.8 10.873 5.529 13.334-8.42.483-13.742-4.419-7.8-10.873-5.529-13.334"/><path class="g" d="M4.864 5.083c2.268-2.462 8.42-.483 13.742 4.419s7.8 10.873 5.529 13.334-8.42.483-13.742-4.419S2.597 7.544 4.864 5.083Z"/></g></g></svg>