<svg xmlns="http://www.w3.org/2000/svg" width="41.215" height="41.231"><path d="M15.01 20.84a10.931 10.931 0 0 1-5.619-9.81 10.752 10.752 0 0 1 3.975-8.347 11.1 11.1 0 0 1 15.467.97 10.719 10.719 0 0 1 2.838 9.229 10.84 10.84 0 0 1-5.517 7.967c.6.185 1.164.314 1.693.525a19.53 19.53 0 0 1 4.865 2.634 28.226 28.226 0 0 1 2.588 2.184 20.318 20.318 0 0 1 5.526 10.6c.165.949.213 1.918.361 2.871a1.229 1.229 0 0 1-.383 1.262 2.434 2.434 0 0 1-.658.29.6.6 0 0 1-.2.005H1.256A1.211 1.211 0 0 1 0 39.972a17.355 17.355 0 0 1 .558-4.127A19.967 19.967 0 0 1 2.12 31.52a19.363 19.363 0 0 1 2.747-4.184 18.5 18.5 0 0 1 1.814-1.941 21.619 21.619 0 0 1 3.532-2.534 18.9 18.9 0 0 1 3.844-1.721c.302-.088.599-.188.953-.3Zm23.458 18.092c.072-.043.407.161.362-.207a19.745 19.745 0 0 0-.349-2.183 19.2 19.2 0 0 0-1.923-5.042 16.474 16.474 0 0 0-2.482-3.377 18.264 18.264 0 0 0-2.275-2.05 21.968 21.968 0 0 0-3.061-1.9 14.415 14.415 0 0 0-4.7-1.505c-1-.126-2-.264-3.008-.331a11.524 11.524 0 0 0-1.974.065 21.832 21.832 0 0 0-2.924.427 17.867 17.867 0 0 0-4.826 1.948 18.173 18.173 0 0 0-5.116 4.444 17.508 17.508 0 0 0-3.154 6.146c-.282 1.023-.438 2.085-.624 3.133-.082.466-.048.471.446.44a5.61 5.61 0 0 1 .343-.009ZM19.891 20.141A9.306 9.306 0 0 0 26.98 17.5a8.634 8.634 0 0 0 2.573-6.438 8.958 8.958 0 0 0-17.914.02 8.649 8.649 0 0 0 3.033 6.738 8.289 8.289 0 0 0 5.219 2.321Z" style="fill:#140902"/></svg>