<svg xmlns="http://www.w3.org/2000/svg" width="81.216" height="19.205"><defs><clipPath id="a"><path transform="translate(-3 -3)" style="fill:none" d="M0 0h81.216v19.205H0z"/></clipPath></defs><g style="clip-path:url(#a)" transform="translate(3 3)"><path d="m7.347.446 1.628 3.3a.61.61 0 0 0 .46.334l3.64.529a.611.611 0 0 1 .338 1.042L10.78 8.217a.611.611 0 0 0-.176.541l.622 3.626a.611.611 0 0 1-.886.644l-3.256-1.713a.61.61 0 0 0-.568 0l-3.257 1.712a.611.611 0 0 1-.886-.644L3 8.758a.611.611 0 0 0-.176-.541L.185 5.649a.611.611 0 0 1 .339-1.043l3.64-.529a.61.61 0 0 0 .46-.334l1.628-3.3a.611.611 0 0 1 1.1 0M22.725.446l1.628 3.3a.61.61 0 0 0 .46.334l3.64.529a.611.611 0 0 1 .338 1.042l-2.634 2.568a.611.611 0 0 0-.176.541l.622 3.626a.611.611 0 0 1-.886.644l-3.256-1.712a.61.61 0 0 0-.568 0l-3.256 1.712a.611.611 0 0 1-.886-.644l.622-3.626a.611.611 0 0 0-.176-.541l-2.634-2.568a.611.611 0 0 1 .341-1.045l3.64-.529a.61.61 0 0 0 .46-.334l1.628-3.3a.611.611 0 0 1 1.1 0M38.107.446l1.628 3.3a.61.61 0 0 0 .46.334l3.64.529a.611.611 0 0 1 .338 1.042l-2.634 2.568a.611.611 0 0 0-.176.541l.622 3.626a.611.611 0 0 1-.886.644l-3.256-1.712a.611.611 0 0 0-.568 0l-3.256 1.712a.611.611 0 0 1-.886-.644l.622-3.626a.611.611 0 0 0-.176-.541l-2.634-2.568a.611.611 0 0 1 .338-1.042l3.64-.529a.61.61 0 0 0 .46-.334l1.628-3.3a.611.611 0 0 1 1.1 0M53.48.446l1.628 3.3a.61.61 0 0 0 .46.334l3.64.529a.611.611 0 0 1 .338 1.042l-2.635 2.566a.611.611 0 0 0-.176.541l.622 3.626a.611.611 0 0 1-.886.644l-3.256-1.712a.61.61 0 0 0-.568 0l-3.256 1.712a.611.611 0 0 1-.886-.644l.622-3.626a.611.611 0 0 0-.176-.541l-2.634-2.568a.611.611 0 0 1 .338-1.042l3.64-.529a.61.61 0 0 0 .46-.334l1.628-3.3a.611.611 0 0 1 1.1 0"/><path d="m587.643 1.34 1.628 3.3a.61.61 0 0 0 .46.334l3.64.529a.611.611 0 0 1 .338 1.042l-2.634 2.568a.611.611 0 0 0-.176.541l.622 3.626a.611.611 0 0 1-.886.644l-3.256-1.712a.61.61 0 0 0-.568 0l-3.256 1.712a.611.611 0 0 1-.886-.644l.622-3.626a.611.611 0 0 0-.176-.541l-2.634-2.568a.611.611 0 0 1 .339-1.045l3.64-.529a.61.61 0 0 0 .46-.334l1.628-3.3a.611.611 0 0 1 1.095.003Z" transform="translate(-518.785 -.894)" style="stroke:#000;stroke-miterlimit:10;stroke-width:2px;fill:none"/><path d="M68.292 11.246a.611.611 0 0 0-.266.07l-3.256 1.712a.611.611 0 0 1-.886-.644l.622-3.626a.61.61 0 0 0-.176-.54L61.696 5.65a.611.611 0 0 1 .338-1.044l3.641-.529a.611.611 0 0 0 .46-.334l1.628-3.3a.6.6 0 0 1 .551-.337Z"/></g></svg>