<svg xmlns="http://www.w3.org/2000/svg" width="61.033" height="73.263"><defs><clipPath id="a"><path style="fill:none" d="M0 0h61.033v73.262H0z"/></clipPath><style>.c{fill:#fff}</style></defs><g style="clip-path:url(#a)"><path class="c" d="M43.115 43.755a1.285 1.285 0 0 1 .14.057 13.018 13.018 0 0 0 3.632 1.348 11.326 11.326 0 0 0 5.6-.036 10.865 10.865 0 0 0 3.812-19.219.258.258 0 0 1-.1-.357 12.018 12.018 0 0 0 .671-2.961 11.508 11.508 0 0 0-.852-5.666 12 12 0 0 0-6.928-6.816.452.452 0 0 1-.216-.27 13.587 13.587 0 0 0-3.036-5.49A13.364 13.364 0 0 0 36.814.042a12.7 12.7 0 0 0-6.2 1.054 16.771 16.771 0 0 0-6.156 4.881 33.9 33.9 0 0 0-4.089 6.434 78.279 78.279 0 0 0-4.462 11.26c-1.652 5.12-3 10.326-4.363 15.526l-.587 2.237-.1.072a1.043 1.043 0 0 0-.138-.248q-2.184-2.191-4.376-4.375-1.344-1.339-2.71-2.665a1.981 1.981 0 0 0-1.358-.583 2.31 2.31 0 0 0-2.086 1.37 2.162 2.162 0 0 0 .524 2.488q4.133 4.112 8.267 8.22c.583.579 1.147 1.18 1.768 1.716a2.079 2.079 0 0 0 3.093-.22 3.082 3.082 0 0 0 .623-1.3c.7-2.925 1.374-5.858 2.112-8.774 1.227-4.852 2.62-9.656 4.309-14.37a65.69 65.69 0 0 1 4.514-10.252 23.419 23.419 0 0 1 4.031-5.444 9.073 9.073 0 0 1 15.5 5.576c.029.346.048.693.071 1.02a7.439 7.439 0 0 1 6.91 5.012 7.514 7.514 0 0 1-1.719 8.367c.135.071.262.138.39.2a12.55 12.55 0 0 1 4.028 2.994 6.548 6.548 0 0 1-6.2 10.767 13.164 13.164 0 0 1-3.154-1.02c-.867-.378-1.734-.76-2.623-1.081a4.264 4.264 0 0 0-2.016-.244 2.112 2.112 0 0 0-1.855 2.085q-.009 3.787 0 7.575v.3h-5.658V40.833a2.106 2.106 0 0 0-1.658-2.128 3.786 3.786 0 0 0-1.094.016c-1.188.129-2.374.276-3.561.422s-2.37.311-3.558.442a2.276 2.276 0 0 0-1.976 1.981 2.173 2.173 0 0 0 1.433 2.224 3 3 0 0 0 1.464.111c1.031-.145 2.066-.267 3.1-.4.488-.062.977-.12 1.494-.184v7.548a1.917 1.917 0 0 0 .029.407 2.278 2.278 0 0 0 2.258 1.694h9.705a2.78 2.78 0 0 0 .636-.062 2.236 2.236 0 0 0 1.735-2.2q.005-3.325 0-6.65v-.3M17.107 65.219c-.006-.087-.013-.137-.013-.186 0-1.446 0-2.892.006-4.339a5.308 5.308 0 0 1 .081-.763.355.355 0 0 1 .389-.326c1.317-.037 2.634-.089 3.951-.123a3.153 3.153 0 0 1 1.99.553l2.163 1.559a4.181 4.181 0 0 0 .465.318.929.929 0 0 0 .925-.078c.238-.252.067-.5-.035-.735-.281-.66-.578-1.314-.849-1.978-.345-.845-.337-.861-1.243-.856-2.284.012-4.569.051-6.853.053-2.207 0-4.415-.032-6.622-.048a.6.6 0 1 0-.044 1.2c.077.005.154 0 .231.007.461.026.924.032 1.382.084.543.062.712.26.728.8.028.958.066 1.916.061 2.874-.012 2.67-.044 5.339-.07 8.009 0 .341-.092.456-.431.536a4.249 4.249 0 0 1-.683.1c-.4.028-.8.026-1.2.055a.523.523 0 0 0-.556.52c-.038.5.132.669.656.666q3.157-.015 6.314-.021c.7 0 1.4.017 2.1.009.372 0 .541-.169.567-.494.033-.405-.194-.643-.69-.676-.512-.034-1.027-.027-1.538-.063a4.919 4.919 0 0 1-.8-.141.376.376 0 0 1-.3-.4q-.044-2.374-.091-4.748a.976.976 0 0 1 .027-.164h.8c.838.017 1.676.02 2.513.063a1.29 1.29 0 0 1 1.281 1.026c.066.247.134.495.187.745.112.525.3.673.832.648.43-.02.584-.183.563-.609-.035-.726-.095-1.452-.109-2.178-.019-.967 0-1.934-.011-2.9a.641.641 0 0 0-.135-.417.806.806 0 0 0-1.236.278 10.343 10.343 0 0 0-.3 1.137.785.785 0 0 1-.43.572 3.076 3.076 0 0 1-.547.212 14.459 14.459 0 0 1-3.421.207m13.25 3.145a5.387 5.387 0 0 0-.651 0c-.6.072-.806.371-.672.957.188.825.407 1.642.581 2.47a1.066 1.066 0 0 0 .925.92 24.993 24.993 0 0 0 5.273.532 12.062 12.062 0 0 0 3.562-.543 5.553 5.553 0 0 0 2.663-1.66 2.668 2.668 0 0 0 .087-3.548 5.217 5.217 0 0 0-.629-.675 15.689 15.689 0 0 0-3.725-2.335c-1.043-.511-2.1-1-3.122-1.55a4.834 4.834 0 0 1-1.217-.915 1.179 1.179 0 0 1 .11-1.759 3.065 3.065 0 0 1 .867-.529 5.722 5.722 0 0 1 2.6-.319 3.021 3.021 0 0 1 2.88 2.262c.063.2.119.4.184.626.288-.02.561-.026.831-.06a.666.666 0 0 0 .658-.845c-.066-.664-.133-1.328-.191-1.992a.786.786 0 0 0-.581-.76 9.032 9.032 0 0 0-.946-.223 17.324 17.324 0 0 0-6.629.031 5.922 5.922 0 0 0-2.655 1.152 2.4 2.4 0 0 0-.939 2.405 2.882 2.882 0 0 0 1.134 1.69 14.118 14.118 0 0 0 2.639 1.615c1.1.559 2.207 1.089 3.286 1.679a6.6 6.6 0 0 1 2.072 1.7 1.746 1.746 0 0 1-.345 2.521 3.963 3.963 0 0 1-1.042.532 6.5 6.5 0 0 1-3.147.154 4.342 4.342 0 0 1-3.284-2.289c-.215-.4-.39-.815-.586-1.228m29.7 3.31-.411-.463c-.37-.417-.426-.428-.944-.207a10.093 10.093 0 0 1-5.575.719 6.034 6.034 0 0 1-4.46-2.922 6.868 6.868 0 0 1-.842-4.578 4.753 4.753 0 0 1 1.809-3.259 7.8 7.8 0 0 1 6.752-1.357 2.389 2.389 0 0 1 1.879 1.9c.047.2.07.4.111.64.291-.03.574-.037.847-.093a.459.459 0 0 0 .393-.5q-.008-1.232 0-2.465a.615.615 0 0 0-.418-.613 1.592 1.592 0 0 0-.367-.108 20.358 20.358 0 0 0-6.97.041 10.955 10.955 0 0 0-5.158 2.373 6.474 6.474 0 0 0-1.326 8.667 8.031 8.031 0 0 0 4.672 3.308 14.081 14.081 0 0 0 6.555.22 10.861 10.861 0 0 0 3.465-1.307"/><path class="c" d="M43.115 43.755v6.95a2.236 2.236 0 0 1-1.735 2.2 2.78 2.78 0 0 1-.636.062q-4.853.006-9.705 0a2.278 2.278 0 0 1-2.258-1.694 1.918 1.918 0 0 1-.029-.407v-7.548c-.517.064-1.006.122-1.494.184-1.033.13-2.068.252-3.1.4a3 3 0 0 1-1.464-.111 2.173 2.173 0 0 1-1.433-2.224 2.276 2.276 0 0 1 1.976-1.981c1.188-.131 2.372-.3 3.558-.442s2.372-.293 3.561-.422a3.784 3.784 0 0 1 1.094-.016 2.106 2.106 0 0 1 1.65 2.122q.007 3.736 0 7.472v.313h5.654v-7.875a2.112 2.112 0 0 1 1.855-2.085 4.264 4.264 0 0 1 2.016.244c.889.321 1.756.7 2.623 1.081a13.164 13.164 0 0 0 3.163 1.027 6.548 6.548 0 0 0 6.2-10.762 12.548 12.548 0 0 0-4.028-2.994c-.128-.066-.255-.133-.39-.2a7.514 7.514 0 0 0 1.719-8.367A7.439 7.439 0 0 0 45 13.665c-.022-.327-.042-.674-.071-1.02a9.073 9.073 0 0 0-15.5-5.576 23.419 23.419 0 0 0-4.029 5.444 65.688 65.688 0 0 0-4.515 10.247c-1.689 4.714-3.081 9.518-4.309 14.37-.738 2.916-1.409 5.849-2.112 8.774a3.082 3.082 0 0 1-.623 1.3 2.079 2.079 0 0 1-3.093.22c-.621-.536-1.185-1.137-1.768-1.716Q4.845 41.605.714 37.494a2.162 2.162 0 0 1-.524-2.489 2.31 2.31 0 0 1 2.086-1.37 1.981 1.981 0 0 1 1.358.583Q5 35.543 6.341 36.884q2.193 2.182 4.376 4.375a1.046 1.046 0 0 1 .138.248l.1-.072.587-2.237c1.366-5.2 2.711-10.407 4.363-15.526a78.274 78.274 0 0 1 4.462-11.26 33.9 33.9 0 0 1 4.089-6.434 16.771 16.771 0 0 1 6.156-4.881 12.7 12.7 0 0 1 6.2-1.054 13.364 13.364 0 0 1 9.025 4.305 13.586 13.586 0 0 1 3.036 5.49.452.452 0 0 0 .216.27 11.994 11.994 0 0 1 6.927 6.813 11.508 11.508 0 0 1 .852 5.666 12.018 12.018 0 0 1-.671 2.962.258.258 0 0 0 .1.357 10.865 10.865 0 0 1-3.807 19.219 11.326 11.326 0 0 1-5.6.036 13.019 13.019 0 0 1-3.632-1.348 1.276 1.276 0 0 0-.14-.057M17.107 65.219a14.449 14.449 0 0 0 3.421-.207 3.076 3.076 0 0 0 .547-.212.785.785 0 0 0 .43-.572 10.355 10.355 0 0 1 .3-1.137.806.806 0 0 1 1.236-.278.641.641 0 0 1 .135.417c.012.967-.008 1.934.011 2.9.014.727.074 1.452.109 2.178.021.426-.133.589-.563.609-.536.025-.721-.123-.832-.648-.053-.25-.121-.5-.187-.745a1.29 1.29 0 0 0-1.281-1.026c-.837-.042-1.675-.046-2.513-.063-.264-.005-.528 0-.8 0a.972.972 0 0 0-.027.164q.044 2.374.091 4.747a.376.376 0 0 0 .3.4 4.918 4.918 0 0 0 .8.141c.512.036 1.027.029 1.539.063.5.033.723.271.69.676-.027.325-.2.49-.567.494-.7.008-1.4-.01-2.1-.009q-3.157.007-6.314.021c-.524 0-.694-.163-.656-.666a.523.523 0 0 1 .556-.521c.4-.029.8-.027 1.2-.055a4.239 4.239 0 0 0 .683-.1c.339-.08.428-.195.431-.536.027-2.67.058-5.339.07-8.009 0-.958-.034-1.916-.061-2.874-.016-.544-.185-.742-.728-.8-.458-.052-.921-.058-1.382-.084-.077 0-.154 0-.231-.007a.6.6 0 1 1 .044-1.2c2.207.016 4.415.049 6.622.048 2.284 0 4.569-.04 6.853-.053.906 0 .9.011 1.243.856.271.664.569 1.318.849 1.978.1.238.272.483.035.734a.928.928 0 0 1-.925.078 4.177 4.177 0 0 1-.465-.318q-1.082-.778-2.163-1.559a3.156 3.156 0 0 0-1.99-.553c-1.317.034-2.634.086-3.951.123a.355.355 0 0 0-.389.326 5.311 5.311 0 0 0-.081.763c-.009 1.446-.006 2.893-.006 4.339 0 .05.007.1.013.186M30.358 68.364c.2.413.371.831.586 1.228a4.342 4.342 0 0 0 3.284 2.289 6.5 6.5 0 0 0 3.147-.153 3.97 3.97 0 0 0 1.042-.532 1.746 1.746 0 0 0 .345-2.521 6.6 6.6 0 0 0-2.072-1.7c-1.079-.59-2.19-1.12-3.286-1.679a14.1 14.1 0 0 1-2.644-1.613 2.882 2.882 0 0 1-1.134-1.689 2.4 2.4 0 0 1 .939-2.405 5.92 5.92 0 0 1 2.655-1.152 17.325 17.325 0 0 1 6.629-.031 9.034 9.034 0 0 1 .946.223.786.786 0 0 1 .581.76c.058.665.125 1.328.191 1.992a.666.666 0 0 1-.658.845c-.27.034-.544.04-.831.06-.065-.222-.121-.425-.184-.626a3.021 3.021 0 0 0-2.88-2.262 5.72 5.72 0 0 0-2.6.319 3.064 3.064 0 0 0-.867.529 1.179 1.179 0 0 0-.11 1.759 4.833 4.833 0 0 0 1.211.927c1.023.55 2.078 1.039 3.122 1.55a15.687 15.687 0 0 1 3.725 2.335 5.214 5.214 0 0 1 .629.675 2.668 2.668 0 0 1-.087 3.548 5.552 5.552 0 0 1-2.663 1.659 12.053 12.053 0 0 1-3.562.543 24.992 24.992 0 0 1-5.273-.532 1.067 1.067 0 0 1-.925-.92c-.174-.827-.393-1.645-.581-2.47-.134-.586.077-.885.672-.957a5.4 5.4 0 0 1 .651 0M60.061 71.674a10.861 10.861 0 0 1-3.465 1.307 14.08 14.08 0 0 1-6.555-.22 8.031 8.031 0 0 1-4.672-3.308 6.474 6.474 0 0 1 1.326-8.667 10.955 10.955 0 0 1 5.163-2.367 20.359 20.359 0 0 1 6.97-.041 1.6 1.6 0 0 1 .367.108.615.615 0 0 1 .418.613v2.465a.459.459 0 0 1-.393.5c-.273.056-.555.063-.847.093-.041-.239-.064-.443-.111-.64a2.389 2.389 0 0 0-1.879-1.9 7.8 7.8 0 0 0-6.752 1.357 4.753 4.753 0 0 0-1.809 3.259 6.868 6.868 0 0 0 .842 4.578 6.034 6.034 0 0 0 4.468 2.915 10.094 10.094 0 0 0 5.575-.719c.518-.22.574-.21.944.208l.411.463M53.287 4.65a3.873 3.873 0 1 1 3.869 3.857 3.863 3.863 0 0 1-3.869-3.857m2.021 2.246c.072.041.148.076.215.124a2.879 2.879 0 0 0 3.167.06c.077-.051.148-.112.221-.169a3.261 3.261 0 0 0-.746-.042.268.268 0 0 1-.277-.167 27.77 27.77 0 0 0-.746-1.225.626.626 0 0 0-.785-.242v1.614l-1.05.046a2.68 2.68 0 0 0 .039-.326V2.521c.824.029 1.618.027 2.407.094a1.138 1.138 0 0 1 1.016.947 1.292 1.292 0 0 1-.574 1.308c-.074.048-.15.092-.2.122l1.129 1.695a.184.184 0 0 0 .057-.017.748.748 0 0 0 .073-.071 2.769 2.769 0 0 0 .738-2.486 2.885 2.885 0 1 0-4.865 2.576c.065.064.119.138.179.208m1.074-2.609a9.972 9.972 0 0 0 1.069-.1c.107-.02.226-.192.263-.317a.264.264 0 0 0-.224-.344c-.365-.05-.733-.072-1.108-.106Z"/></g></svg>