<svg xmlns="http://www.w3.org/2000/svg" width="188.247" height="187.151"><defs><clipPath id="a"><path style="fill:none" d="M0 0h188.247v187.15H0z"/></clipPath><style>.d{fill:none}.c{fill:#fff}.d{stroke:#000;stroke-linecap:round;stroke-linejoin:round;stroke-width:9px}</style></defs><g style="clip-path:url(#a)"><path class="c" d="M139.045 60.113H75.782a195.978 195.978 0 0 1 0-56.319h63.267a308.064 308.064 0 0 1 0 56.32"/><path class="d" d="M139.045 60.113H75.782a195.978 195.978 0 0 1 0-56.319h63.267a309.39 309.39 0 0 1 1.28 25.6 309.201 309.201 0 0 1-1.284 30.719Z"/><path class="c" d="M98.451 129.964H35.184a167.966 167.966 0 0 1 0-56.319h63.267a129.113 129.113 0 0 1 3.109 28.16 129.111 129.111 0 0 1-3.109 28.159"/><path class="d" d="M98.451 129.964H35.184a167.966 167.966 0 0 1 0-56.319h63.267a129.113 129.113 0 0 1 3.109 28.16 129.111 129.111 0 0 1-3.109 28.159Z"/><path class="c" d="M177.444 129.964h-63.267a241.556 241.556 0 0 1 0-56.319h63.267a310.36 310.36 0 0 1 0 56.319"/><path class="d" d="M177.444 129.964h-63.267a241.556 241.556 0 0 1 0-56.319h63.267a310.36 310.36 0 0 1 0 56.319Z"/><path class="d" d="m3.794 37.317 16.579 1.707a773.615 773.615 0 0 0 .243 106.299 1621.489 1621.489 0 0 0 163.836.244M94.977 5.623h23.893v17.554H94.977z"/><path class="d" d="M54.262 74.864h23.893v17.554H54.262zM133.742 74.864h23.893v17.554h-23.893z"/><path class="c" d="M58.407 171.166a12.19 12.19 0 1 1-12.19-12.19 12.19 12.19 0 0 1 12.19 12.19"/><circle class="d" cx="12.19" cy="12.19" transform="translate(34.026 158.976)" r="12.19"/><path class="c" d="M174.458 171.166a12.19 12.19 0 1 1-12.19-12.19 12.19 12.19 0 0 1 12.19 12.19"/><circle class="d" cx="12.19" cy="12.19" transform="translate(150.077 158.976)" r="12.19"/></g></svg>