<svg xmlns="http://www.w3.org/2000/svg" width="154.017" height="150.436"><defs><clipPath id="a"><path style="fill:none" d="M0 0h154.017v150.436H0z"/></clipPath></defs><g style="clip-path:url(#a)"><path d="M150.048 71.392a71.564 71.564 0 0 1-12.066 44.041c-13.916 20.3-38.321 32.307-62.358 31.07-37.49-1.93-68.58-35.565-70.989-70.989-.3-4.378-1.777-33.046 19.926-53.593C43.428 4.057 67.07 4.4 75.623 4.526c5.822.084 36.372.561 57.532 25.237a72.024 72.024 0 0 1 16.893 41.628" transform="translate(-.327 -.327)" style="fill:#fff"/><path d="M150.048 71.392a71.564 71.564 0 0 1-12.066 44.041c-13.916 20.3-38.321 32.307-62.358 31.07-37.49-1.93-68.58-35.565-70.989-70.989-.3-4.378-1.777-33.046 19.926-53.593C43.428 4.057 67.07 4.4 75.623 4.526c5.822.084 36.372.561 57.532 25.237a72.024 72.024 0 0 1 16.893 41.629Z" transform="translate(-.327 -.327)" style="stroke:#000;stroke-linecap:round;stroke-linejoin:round;stroke-width:9px;fill:none"/><path d="M50.326 75.184a8.648 8.648 0 1 1-8.647-8.647 8.647 8.647 0 0 1 8.647 8.647M83.944 75.184a8.648 8.648 0 1 1-8.647-8.647 8.647 8.647 0 0 1 8.647 8.647M117.562 75.184a8.648 8.648 0 1 1-8.647-8.647 8.647 8.647 0 0 1 8.647 8.647"/></g></svg>