<svg xmlns="http://www.w3.org/2000/svg" width="201.777" height="185.379"><defs><clipPath id="a"><path style="fill:none" d="M0 0h201.777v185.379H0z"/></clipPath><style>.c{fill:#fff}</style></defs><g style="clip-path:url(#a)"><path class="c" d="M46.088 120.533a27.916 27.916 0 0 0 1.147 2.794 21.79 21.79 0 0 0 4.365 6.434 10.714 10.714 0 0 0 5.044 2.953 10.211 10.211 0 0 0 1.429.228Zm151.425-82.584A50.517 50.517 0 0 0 127.3 7.913a54.071 54.071 0 0 0-27.71 29.488A60.009 60.009 0 0 0 61.69 8.93c-15.013-3.6-29.874-1.077-40.772 6.925-9.51 6.986-16.182 18.562-18.31 31.753a60.782 60.782 0 0 0 8 40.687l.219.288 23.155 23.972 2.509 2.6 67.612 70 .162.168 2.354-.082.839-1 86-102.33.168-.247a53.978 53.978 0 0 0 3.887-43.712m-139.44 94.99-11.985-12.409m0 0a27.916 27.916 0 0 0 1.147 2.794 21.79 21.79 0 0 0 4.365 6.434 10.714 10.714 0 0 0 5.044 2.953 10.211 10.211 0 0 0 1.429.228Z"/><path d="M165.9 82.153a18.25 18.25 0 0 0-5.172-10.44 24.066 24.066 0 0 0-7.714-5.117 56.913 56.913 0 0 0-14.918-3.86c-4.137-.582-8.3-.842-12.471-1.035-2.51-.116-5.024-.129-7.538-.161-.768-.01-1.536.08-2.3.09-2.08.029-4.163-.013-6.239.077a6.185 6.185 0 0 1-3.642-1q-2.936-1.842-5.86-3.7a49.062 49.062 0 0 0-8.923-4.658 23.29 23.29 0 0 0-11.392-1.5 21.829 21.829 0 0 0-8.945 3.314 29.115 29.115 0 0 0-5.532 4.751 70.9 70.9 0 0 0-5.191 6.287c-3.375 4.539-6.374 9.322-9.3 14.159-4.22 6.988-8.132 14.149-12.076 21.292q-2.155 3.905-4.314 7.8-.81 1.471-1.63 2.941l2.546 2.636q.815-1.471 1.623-2.948l4.291-7.82a1264.49 1264.49 0 0 1 2.552-4.606 6.3 6.3 0 0 1 .09.685c.006 2.031-.016 4.063.01 6.091.032 2.874.1 5.747.148 8.624a17.551 17.551 0 0 0 1.025 5.429 28.387 28.387 0 0 0 1.164 2.835 22.109 22.109 0 0 0 4.429 6.528 10.874 10.874 0 0 0 5.117 3 10.371 10.371 0 0 0 1.45.231 9.462 9.462 0 0 0 3.488-.37 14.916 14.916 0 0 0 6.612-3.928 14.171 14.171 0 0 0 2.768-4.5 36.871 36.871 0 0 0 2.256-8.373c.4-2.43.633-4.873.816-7.329.273-3.639.321-7.28.283-10.922a154.365 154.365 0 0 0-.206-6.769 298.61 298.61 0 0 0-.62-9.119 240.77 240.77 0 0 0-.926-9.016c-.492-3.989-1.061-7.968-1.623-11.951a1.075 1.075 0 0 1 .415-1.125 19.28 19.28 0 0 1 10.443-4.481 19.944 19.944 0 0 1 8.955 1.379 43.457 43.457 0 0 1 7.917 4.1c2.176 1.36 4.33 2.755 6.519 4.1a7.446 7.446 0 0 0 3.118 1.263c1.244.116 2.507.071 3.761.087.2 0 .4-.055.607-.058 2.285-.019 4.571-.048 6.859-.048 1.565 0 3.134 0 4.7.055 2.15.074 4.3.158 6.448.309a99.048 99.048 0 0 1 12.944 1.655c.62.129 1.234.289 1.893.444-.331 1.173-.653 2.273-.948 3.378a40.529 40.529 0 0 0-1.34 7.325 47.674 47.674 0 0 0-.241 5.066 25.436 25.436 0 0 0 3.185 12.3 21.142 21.142 0 0 0 4.253 5.133c.113.1.241.183.473.354-.694.379-1.26.707-1.842 1a82.732 82.732 0 0 1-14.4 5.574 96.616 96.616 0 0 1-14.805 3.124c-2 .251-4.018.431-6.033.6-.71.061-1.434 0-2.15.019a5.7 5.7 0 0 0-.99.116 1.711 1.711 0 0 0 .222 3.385 8.3 8.3 0 0 0 1.231-.026 13.22 13.22 0 0 1 7.8 1.89 8.287 8.287 0 0 1 1.6 1.311c.485.492.421.826-.212 1.135a8.807 8.807 0 0 1-1.8.646c-1.993.482-4.005.881-5.991 1.385a16.61 16.61 0 0 0-2.443.919 7.168 7.168 0 0 0-3.69 3.558 22.424 22.424 0 0 0-1.99 5.564c-.418 2.263-.72 4.555-.971 6.843-.28 2.546-.466 5.1-.646 7.653a92.02 92.02 0 0 0-.183 4.613q-.1 5.7-.154 11.4c-.01 1.205.01 2.414.051 3.619.09 2.485.18 4.969.312 7.454.122 2.273.264 4.551.466 6.821.01.093.016.183.026.276.151 1.713.309 3.426.492 5.136l.164.17 2.388-.084.852-1.016a293.685 293.685 0 0 1-.424-4.49q-.236-2.811-.44-5.628c-.158-2.1-.238-4.2-.315-6.3a196.146 196.146 0 0 1-.151-6.464c-.006-2.565.048-5.133.1-7.7.032-1.716.08-3.436.154-5.153s.161-3.43.312-5.14c.238-2.678.527-5.349.813-8.023a26.949 26.949 0 0 1 1.691-6.84 5.515 5.515 0 0 1 3.921-3.68c1.909-.485 3.828-.935 5.754-1.366a9.728 9.728 0 0 0 4.24-1.716 3.533 3.533 0 0 0 1.379-3.741 4.662 4.662 0 0 0-1.315-2.391c-.543-.521-1.115-1.013-1.726-1.562.318-.068.566-.122.813-.167.984-.17 1.974-.315 2.954-.511a111.521 111.521 0 0 0 11.851-2.983 76.32 76.32 0 0 0 15.467-6.612 36.353 36.353 0 0 0 9.238-7.223 17.5 17.5 0 0 0 4.208-7.769 17.939 17.939 0 0 0 .087-6.509"/><path class="c" d="M149.52 100.67a21.143 21.143 0 0 1-4.253-5.133 25.436 25.436 0 0 1-3.185-12.3 47.678 47.678 0 0 1 .241-5.066 40.527 40.527 0 0 1 1.34-7.325c.3-1.106.617-2.205.948-3.378-.659-.154-1.273-.315-1.893-.444a99.042 99.042 0 0 0-12.944-1.655c-2.144-.151-4.3-.235-6.448-.309-1.562-.055-3.131-.058-4.7-.055-2.289 0-4.574.029-6.859.048-.2 0-.405.061-.608.058-1.254-.016-2.517.029-3.761-.087a7.446 7.446 0 0 1-3.113-1.262c-2.189-1.34-4.343-2.735-6.519-4.1a43.458 43.458 0 0 0-7.917-4.1 19.944 19.944 0 0 0-8.955-1.379 19.28 19.28 0 0 0-10.443 4.481 1.075 1.075 0 0 0-.415 1.125c.563 3.983 1.131 7.962 1.623 11.951.37 3 .669 6 .926 9.016.257 3.034.456 6.078.62 9.119.122 2.253.183 4.513.206 6.769.039 3.642-.01 7.284-.283 10.922-.183 2.456-.415 4.9-.816 7.329a36.872 36.872 0 0 1-2.256 8.373 14.171 14.171 0 0 1-2.768 4.5 14.915 14.915 0 0 1-6.612 3.928 9.462 9.462 0 0 1-3.488.37 10.372 10.372 0 0 1-1.45-.231 10.874 10.874 0 0 1-5.117-3 22.108 22.108 0 0 1-4.429-6.528 28.393 28.393 0 0 1-1.164-2.835 17.552 17.552 0 0 1-1.025-5.429c-.051-2.877-.116-5.75-.148-8.624-.026-2.028 0-4.06-.01-6.091a6.3 6.3 0 0 0-.09-.685c-.913 1.643-1.736 3.124-2.552 4.606q-2.15 3.91-4.291 7.82-.81 1.475-1.623 2.948l68.6 71.02c-.183-1.71-.341-3.423-.492-5.136-.01-.093-.016-.183-.026-.276-.2-2.269-.344-4.548-.466-6.821a442.136 442.136 0 0 1-.312-7.454 83.99 83.99 0 0 1-.051-3.619q.058-5.7.154-11.4c.029-1.54.077-3.079.183-4.613.18-2.552.366-5.107.646-7.653.251-2.289.553-4.58.971-6.843a22.424 22.424 0 0 1 1.99-5.564 7.168 7.168 0 0 1 3.69-3.558 16.613 16.613 0 0 1 2.443-.919c1.986-.5 4-.9 5.991-1.385a8.809 8.809 0 0 0 1.8-.646c.633-.309.7-.643.212-1.135a8.288 8.288 0 0 0-1.6-1.311 13.22 13.22 0 0 0-7.8-1.89 8.3 8.3 0 0 1-1.231.026 1.711 1.711 0 0 1-.222-3.385 5.7 5.7 0 0 1 .99-.116c.717-.016 1.44.042 2.15-.019 2.015-.174 4.031-.354 6.033-.6a96.614 96.614 0 0 0 14.805-3.124 82.729 82.729 0 0 0 14.4-5.574c.582-.3 1.147-.624 1.842-1-.231-.17-.36-.251-.473-.354M93.844 63.674a1.92 1.92 0 0 1 1.588-1.138 4.368 4.368 0 0 1 1.041.437c1.5 1.157 3 2.327 4.455 3.539a1.646 1.646 0 0 1 .572 1.8 1.69 1.69 0 0 1-1.4 1.26 1.539 1.539 0 0 1-1.3-.328q-2.228-1.765-4.452-3.542a1.757 1.757 0 0 1-.5-2.025m-5.432 6.2a1.779 1.779 0 0 1 2.353.64c.527.788 1.041 1.588 1.633 2.324a4.465 4.465 0 0 0 1.17.961 1.751 1.751 0 0 1 .923 1.569 1.635 1.635 0 0 1-2.147 1.63 4.815 4.815 0 0 1-1.652-.932 13.6 13.6 0 0 1-2.925-3.835 1.772 1.772 0 0 1 .646-2.356"/><path d="M95.437 62.54a4.378 4.378 0 0 1 1.04.437c1.5 1.155 2.995 2.328 4.454 3.538a1.646 1.646 0 0 1 .573 1.8 1.691 1.691 0 0 1-1.406 1.26 1.532 1.532 0 0 1-1.293-.329q-2.232-1.764-4.453-3.54a1.763 1.763 0 0 1-.505-2.027 1.924 1.924 0 0 1 1.59-1.136M94.496 75.37a1.635 1.635 0 0 1-2.147 1.629 4.822 4.822 0 0 1-1.653-.932 13.643 13.643 0 0 1-2.926-3.833 1.728 1.728 0 0 1 3-1.716c.528.787 1.042 1.587 1.634 2.324a4.547 4.547 0 0 0 1.17.959 1.755 1.755 0 0 1 .924 1.569"/><path d="M45.03 119.48a28.388 28.388 0 0 0 1.164 2.835 22.109 22.109 0 0 0 4.429 6.528 10.874 10.874 0 0 0 5.117 3 10.373 10.373 0 0 0 1.45.231Zm153.637-83.79a51.255 51.255 0 0 0-71.238-30.475 54.86 54.86 0 0 0-28.116 29.918A60.886 60.886 0 0 0 60.861 6.246c-15.23-3.654-30.308-1.092-41.366 7.027C9.843 20.36 3.074 32.106.914 45.493A61.669 61.669 0 0 0 9.03 86.775l.222.293 23.493 24.322 2.546 2.636 68.6 71.02.164.17 2.388-.084.852-1.016 87.258-103.825.17-.251a54.767 54.767 0 0 0 3.944-44.351m-6.672 42.651L106.87 179.626l-1.742 2.073-1.729-1.79-46.209-47.838-12.16-12.59-8.116-8.4-2.539-2.629-22.681-23.484c-14.111-23.831-9.775-54.8 9.7-69.1C31.54 8.416 46.01 5.989 60.115 9.371A57.808 57.808 0 0 1 98.198 39.83l2.973-.248a51.543 51.543 0 0 1 27.608-31.449 48.041 48.041 0 0 1 66.845 28.595 51.554 51.554 0 0 1-3.629 41.612M45.03 119.48a28.388 28.388 0 0 0 1.164 2.835 22.109 22.109 0 0 0 4.429 6.528 10.874 10.874 0 0 0 5.117 3 10.373 10.373 0 0 0 1.45.231Z"/><path d="M45.369 119.82a28.388 28.388 0 0 0 1.164 2.835 22.109 22.109 0 0 0 4.429 6.528 10.874 10.874 0 0 0 5.117 3 10.373 10.373 0 0 0 1.45.231Zm153.637-83.79a51.255 51.255 0 0 0-71.238-30.475 54.86 54.86 0 0 0-28.116 29.918A60.886 60.886 0 0 0 61.2 6.586c-15.23-3.654-30.308-1.092-41.366 7.027C10.182 20.7 3.413 32.446 1.253 45.833a61.669 61.669 0 0 0 8.116 41.282l.222.293 23.493 24.322 2.546 2.636 68.6 71.02.164.17 2.388-.084.852-1.016 87.258-103.825.17-.251a54.767 54.767 0 0 0 3.944-44.35Zm-6.672 42.65-85.125 101.286-1.742 2.073-1.729-1.79-46.209-47.838-12.16-12.59-8.116-8.4-2.539-2.629-22.681-23.484c-14.111-23.831-9.775-54.8 9.7-69.1 10.146-7.452 24.616-9.879 38.721-6.497A57.808 57.808 0 0 1 98.537 40.17l2.973-.248a51.543 51.543 0 0 1 27.608-31.449 48.041 48.041 0 0 1 66.845 28.595 51.554 51.554 0 0 1-3.629 41.612ZM45.369 119.82a28.388 28.388 0 0 0 1.164 2.835 22.109 22.109 0 0 0 4.429 6.528 10.874 10.874 0 0 0 5.117 3 10.373 10.373 0 0 0 1.45.231Z" transform="translate(-.339 -.34)" style="stroke:#000;stroke-miterlimit:10;fill:none"/></g></svg>