<svg xmlns="http://www.w3.org/2000/svg" width="162.11" height="28.461"><defs><clipPath id="a"><path style="fill:none" d="M0 0h162.11v28.461H0z"/></clipPath></defs><g style="clip-path:url(#a)"><path d="m15.835.962 3.509 7.11a1.316 1.316 0 0 0 .991.72l7.846 1.14a1.316 1.316 0 0 1 .729 2.245l-5.678 5.534a1.317 1.317 0 0 0-.379 1.165l1.34 7.814a1.316 1.316 0 0 1-1.91 1.387l-7.016-3.688a1.315 1.315 0 0 0-1.225 0l-7.017 3.689a1.316 1.316 0 0 1-1.91-1.387l1.34-7.814a1.317 1.317 0 0 0-.379-1.165L.4 12.177a1.316 1.316 0 0 1 .728-2.248l7.846-1.14a1.316 1.316 0 0 0 .991-.72l3.509-7.11a1.316 1.316 0 0 1 2.361 0M48.978.962l3.509 7.11a1.316 1.316 0 0 0 .991.72l7.846 1.14a1.316 1.316 0 0 1 .729 2.245l-5.678 5.534a1.317 1.317 0 0 0-.379 1.165l1.34 7.814a1.316 1.316 0 0 1-1.91 1.387l-7.018-3.689a1.315 1.315 0 0 0-1.225 0l-7.014 3.69a1.316 1.316 0 0 1-1.91-1.387l1.34-7.814a1.317 1.317 0 0 0-.379-1.165l-5.678-5.534a1.316 1.316 0 0 1 .727-2.249l7.846-1.14a1.316 1.316 0 0 0 .991-.72l3.509-7.11a1.316 1.316 0 0 1 2.361 0M82.121.962l3.509 7.11a1.316 1.316 0 0 0 .991.72l7.846 1.14a1.316 1.316 0 0 1 .729 2.245l-5.678 5.534a1.317 1.317 0 0 0-.38 1.165l1.34 7.814a1.316 1.316 0 0 1-1.91 1.387l-7.018-3.689a1.316 1.316 0 0 0-1.225 0l-7.017 3.689a1.316 1.316 0 0 1-1.91-1.387l1.34-7.814a1.317 1.317 0 0 0-.379-1.165l-5.678-5.534a1.316 1.316 0 0 1 .729-2.245l7.846-1.14a1.316 1.316 0 0 0 .991-.72l3.509-7.11a1.316 1.316 0 0 1 2.361 0M115.264.962l3.509 7.11a1.316 1.316 0 0 0 .991.72l7.843 1.137a1.316 1.316 0 0 1 .729 2.245l-5.678 5.534a1.317 1.317 0 0 0-.379 1.165l1.34 7.814a1.316 1.316 0 0 1-1.91 1.387l-7.018-3.689a1.315 1.315 0 0 0-1.225 0l-7.018 3.689a1.316 1.316 0 0 1-1.91-1.387l1.34-7.814a1.317 1.317 0 0 0-.379-1.165l-5.678-5.534a1.316 1.316 0 0 1 .729-2.245l7.846-1.14a1.316 1.316 0 0 0 .991-.72l3.509-7.11a1.316 1.316 0 0 1 2.361 0"/><path d="m596.131 1.733 3.509 7.11a1.316 1.316 0 0 0 .991.72l7.846 1.14a1.316 1.316 0 0 1 .729 2.245l-5.678 5.534a1.317 1.317 0 0 0-.379 1.165l1.34 7.814a1.316 1.316 0 0 1-1.91 1.387l-7.018-3.689a1.315 1.315 0 0 0-1.225 0l-7.018 3.689a1.316 1.316 0 0 1-1.91-1.387l1.34-7.814a1.317 1.317 0 0 0-.379-1.165l-5.669-5.534a1.316 1.316 0 0 1 .729-2.245l7.846-1.14a1.316 1.316 0 0 0 .991-.72l3.509-7.11a1.316 1.316 0 0 1 2.356 0Z" transform="translate(-447.724 -.771)" style="stroke:#000;stroke-miterlimit:10;stroke-width:2px;fill:none"/><path d="M147.189 24.238a1.315 1.315 0 0 0-.574.151l-7.018 3.69a1.316 1.316 0 0 1-1.91-1.388l1.34-7.814a1.315 1.315 0 0 0-.379-1.165l-5.672-5.535a1.316 1.316 0 0 1 .729-2.245l7.846-1.14a1.317 1.317 0 0 0 .991-.72l3.509-7.11a1.3 1.3 0 0 1 1.176-.734Z"/></g></svg>