<svg xmlns="http://www.w3.org/2000/svg" width="198.892" height="170.52"><defs><clipPath id="a"><path style="fill:none" d="M0 0h198.892v170.52H0z"/></clipPath><style>.d{fill:none}.c{fill:#fff}.d{stroke:#000;stroke-linecap:round;stroke-linejoin:round;stroke-width:9px}</style></defs><g style="clip-path:url(#a)"><path class="c" d="M157.822 24.525A878.99 878.99 0 0 1 4.069 22.896q5.281 19.632 10.2 40.725 4.8 20.685 8.629 40.316a808.053 808.053 0 0 0 115.707.815"/><path class="d" d="M157.822 24.525A878.99 878.99 0 0 1 4.069 22.896q5.281 19.632 10.2 40.725 4.8 20.685 8.629 40.316a808.053 808.053 0 0 0 115.707.815"/><path class="d" d="m194.823 4.853-29.81-.784a603.029 603.029 0 0 1-12.943 64.325 603.175 603.175 0 0 1-22.357 69.032q-26.061-1.118-53.343-1.569-32.4-.515-63.148 0"/><path class="c" d="M101.603 152.592a13.074 13.074 0 1 0 13.074-13.074 13.074 13.074 0 0 0-13.074 13.074"/><circle class="d" cx="13.074" cy="13.074" transform="translate(101.603 139.518)" r="13.074"/><path class="c" d="M26.948 153.376a13.074 13.074 0 1 0 13.075-13.074 13.074 13.074 0 0 0-13.075 13.074"/><circle class="d" cx="13.074" cy="13.074" transform="translate(26.949 140.302)" r="13.074"/><path class="d" d="m118.207 27.341-12.028 75.046M76.37 26.818v75.307M37.409 26.818l11.767 77.661M17.536 65.518l133.487.261"/></g></svg>