<svg xmlns="http://www.w3.org/2000/svg" width="109.967" height="132"><defs><clipPath id="a"><path style="fill:none" d="M0 0h109.967v132H0z"/></clipPath><style>.c{fill:#fff}</style></defs><g style="clip-path:url(#a)"><path class="c" d="M77.682 78.835a2.318 2.318 0 0 1 .252.1 23.454 23.454 0 0 0 6.543 2.429 20.406 20.406 0 0 0 10.095-.059 19.577 19.577 0 0 0 6.858-34.628.465.465 0 0 1-.176-.643 21.654 21.654 0 0 0 1.21-5.336 20.735 20.735 0 0 0-1.535-10.21 21.611 21.611 0 0 0-12.48-12.278.814.814 0 0 1-.389-.487 24.48 24.48 0 0 0-5.469-9.891A24.078 24.078 0 0 0 66.329.076a22.881 22.881 0 0 0-11.165 1.9 30.216 30.216 0 0 0-11.091 8.794 61.079 61.079 0 0 0-7.368 11.592 141.038 141.038 0 0 0-8.04 20.288c-2.977 9.224-5.4 18.605-7.861 27.974l-1.057 4.03-.188.13a1.88 1.88 0 0 0-.249-.446q-3.935-3.948-7.885-7.882-2.426-2.414-4.878-4.803a3.57 3.57 0 0 0-2.448-1.048 4.162 4.162 0 0 0-3.758 2.466 3.9 3.9 0 0 0 .944 4.483Q8.73 74.96 16.179 82.362c1.05 1.043 2.067 2.126 3.185 3.092a3.746 3.746 0 0 0 5.573-.4 5.553 5.553 0 0 0 1.124-2.349c1.265-5.27 2.476-10.555 3.8-15.809 2.216-8.739 4.725-17.391 7.768-25.891a118.357 118.357 0 0 1 8.135-18.46 42.2 42.2 0 0 1 7.263-9.808c4.222-4.076 9.185-5.717 14.979-4.524a15.954 15.954 0 0 1 12.944 14.57c.052.624.087 1.249.127 1.838 6.087.39 10.261 3.478 12.451 9.031 2.205 5.593.989 10.653-3.1 15.076l.7.366a22.611 22.611 0 0 1 7.257 5.395 11.683 11.683 0 0 1 2.763 10.023c-1.1 5.893-6.594 10.558-13.93 9.368a23.718 23.718 0 0 1-5.683-1.838c-1.561-.682-3.124-1.37-4.725-1.948a7.682 7.682 0 0 0-3.633-.44 3.806 3.806 0 0 0-3.338 3.751q-.016 6.824-.006 13.648v.533H59.645V73.562a3.8 3.8 0 0 0-2.983-3.83 6.821 6.821 0 0 0-1.971.03c-2.141.232-4.278.5-6.415.76s-4.27.561-6.41.8a4.1 4.1 0 0 0-3.56 3.569 3.915 3.915 0 0 0 2.582 4.007 5.406 5.406 0 0 0 2.638.2c1.858-.261 3.722-.481 5.583-.715.88-.111 1.76-.217 2.692-.331v13.6a3.455 3.455 0 0 0 .053.734 4.1 4.1 0 0 0 4.069 3.052q8.743.007 17.486 0a5.008 5.008 0 0 0 1.146-.113 4.029 4.029 0 0 0 3.127-3.957q.01-5.991 0-11.982v-.551m-46.86 38.67c-.011-.157-.023-.246-.023-.336 0-2.606 0-5.211.011-7.817a9.564 9.564 0 0 1 .146-1.375.639.639 0 0 1 .7-.587c2.373-.067 4.745-.161 7.118-.221a5.681 5.681 0 0 1 3.586 1q1.948 1.406 3.9 2.809a7.534 7.534 0 0 0 .837.572 1.673 1.673 0 0 0 1.666-.141c.428-.454.12-.894-.062-1.323-.506-1.19-1.041-2.367-1.53-3.564-.622-1.522-.607-1.55-2.24-1.542-4.116.022-8.232.092-12.348.095-3.977 0-7.954-.057-11.931-.087a1.085 1.085 0 1 0-.08 2.169c.138.009.277.006.416.013.83.046 1.665.057 2.489.151.978.111 1.283.468 1.311 1.448.05 1.726.119 3.452.111 5.178-.022 4.81-.079 9.62-.126 14.429-.006.615-.166.821-.777.966a7.658 7.658 0 0 1-1.231.182c-.722.05-1.449.046-2.171.1a.943.943 0 0 0-1 .938c-.068.907.238 1.2 1.183 1.2q5.688-.026 11.377-.037c1.264 0 2.528.03 3.792.016.67-.007.975-.3 1.022-.89.059-.73-.349-1.158-1.242-1.217-.922-.062-1.85-.049-2.772-.113a8.864 8.864 0 0 1-1.449-.255.678.678 0 0 1-.536-.716q-.079-4.277-.164-8.554a1.759 1.759 0 0 1 .049-.3c.492 0 .968-.008 1.444 0 1.51.031 3.02.037 4.528.113a2.323 2.323 0 0 1 2.308 1.848c.119.446.241.892.337 1.343.2.946.534 1.212 1.5 1.167.775-.036 1.052-.329 1.015-1.1-.064-1.308-.171-2.615-.2-3.924-.035-1.742 0-3.485-.02-5.227a1.155 1.155 0 0 0-.243-.752 1.452 1.452 0 0 0-2.228.5 18.635 18.635 0 0 0-.547 2.049 1.414 1.414 0 0 1-.774 1.031 5.543 5.543 0 0 1-.986.382 26.053 26.053 0 0 1-6.164.374m23.875 5.674a9.705 9.705 0 0 0-1.173.008c-1.072.129-1.451.669-1.211 1.724.339 1.486.733 2.959 1.047 4.45a1.922 1.922 0 0 0 1.667 1.657 45.031 45.031 0 0 0 9.5.959 21.733 21.733 0 0 0 6.417-.979 10.005 10.005 0 0 0 4.8-2.99 4.807 4.807 0 0 0 .153-6.398 9.4 9.4 0 0 0-1.133-1.216 28.268 28.268 0 0 0-6.712-4.207c-1.88-.921-3.782-1.8-5.624-2.793a8.71 8.71 0 0 1-2.183-1.671 2.124 2.124 0 0 1 .2-3.17 5.523 5.523 0 0 1 1.562-.954 10.31 10.31 0 0 1 4.681-.575 5.443 5.443 0 0 1 5.189 4.076c.114.361.215.727.332 1.128.518-.035 1.011-.046 1.5-.107a1.2 1.2 0 0 0 1.186-1.522c-.119-1.2-.24-2.392-.344-3.589a1.417 1.417 0 0 0-1.047-1.37 16.275 16.275 0 0 0-1.7-.4 31.214 31.214 0 0 0-11.943.055 10.669 10.669 0 0 0-4.784 2.076 4.332 4.332 0 0 0-1.692 4.334 5.193 5.193 0 0 0 2.043 3.044 25.436 25.436 0 0 0 4.763 2.906c1.974 1.008 3.977 1.963 5.92 3.025a11.888 11.888 0 0 1 3.733 3.055 3.146 3.146 0 0 1-.621 4.543 7.141 7.141 0 0 1-1.877.958 11.7 11.7 0 0 1-5.669.277 7.823 7.823 0 0 1-5.916-4.124c-.387-.715-.7-1.469-1.056-2.212m53.518 5.965-.74-.834c-.666-.752-.767-.771-1.7-.374a18.185 18.185 0 0 1-10.045 1.3 10.872 10.872 0 0 1-8.05-5.253 12.375 12.375 0 0 1-1.517-8.249 8.563 8.563 0 0 1 3.259-5.873 14.05 14.05 0 0 1 12.166-2.445 4.3 4.3 0 0 1 3.386 3.423c.085.356.127.723.2 1.154.525-.054 1.034-.066 1.526-.167a.826.826 0 0 0 .708-.892q-.014-2.221 0-4.441a1.108 1.108 0 0 0-.752-1.1 2.868 2.868 0 0 0-.662-.2 36.68 36.68 0 0 0-12.558.074 19.738 19.738 0 0 0-9.3 4.264 11.664 11.664 0 0 0-2.389 15.616 14.469 14.469 0 0 0 8.418 5.96 25.37 25.37 0 0 0 11.81.4 19.569 19.569 0 0 0 6.243-2.355"/><path class="c" d="M77.683 78.835V91.36a4.029 4.029 0 0 1-3.127 3.957 5.008 5.008 0 0 1-1.146.113q-8.743.01-17.486 0a4.1 4.1 0 0 1-4.069-3.052 3.455 3.455 0 0 1-.053-.734v-13.6c-.932.115-1.812.221-2.692.331-1.862.234-3.725.454-5.583.715a5.406 5.406 0 0 1-2.638-.2 3.915 3.915 0 0 1-2.589-4.002 4.1 4.1 0 0 1 3.56-3.569c2.14-.236 4.273-.535 6.41-.8s4.275-.528 6.415-.76a6.818 6.818 0 0 1 1.971-.03 3.8 3.8 0 0 1 2.983 3.83q.013 6.731 0 13.463v.565h10.194v-.533q0-6.824.006-13.648a3.806 3.806 0 0 1 3.343-3.756 7.682 7.682 0 0 1 3.633.44c1.6.578 3.164 1.266 4.725 1.948a23.718 23.718 0 0 0 5.683 1.838c7.336 1.19 12.829-3.475 13.93-9.368a11.683 11.683 0 0 0-2.763-10.023 22.609 22.609 0 0 0-7.257-5.395c-.23-.118-.459-.239-.7-.366 4.087-4.423 5.3-9.483 3.1-15.076-2.19-5.553-6.363-8.642-12.451-9.031-.04-.589-.076-1.214-.127-1.838A15.955 15.955 0 0 0 68.006 8.212c-5.793-1.193-10.757.449-14.979 4.525a42.2 42.2 0 0 0-7.263 9.808 118.353 118.353 0 0 0-8.135 18.46c-3.043 8.493-5.552 17.15-7.763 25.891-1.329 5.254-2.539 10.539-3.8 15.809a5.553 5.553 0 0 1-1.123 2.351 3.746 3.746 0 0 1-5.573.4c-1.118-.965-2.135-2.049-3.185-3.092Q8.73 74.963 1.286 67.555a3.9 3.9 0 0 1-.944-4.483A4.162 4.162 0 0 1 4.1 60.605a3.57 3.57 0 0 1 2.446 1.05q2.455 2.386 4.878 4.8 3.952 3.932 7.885 7.882a1.885 1.885 0 0 1 .249.446l.188-.13 1.057-4.03c2.462-9.369 4.884-18.75 7.861-27.974a141.03 141.03 0 0 1 8.04-20.288 61.076 61.076 0 0 1 7.368-11.592 30.217 30.217 0 0 1 11.093-8.793A22.881 22.881 0 0 1 66.33.076a24.078 24.078 0 0 1 16.26 7.757 24.478 24.478 0 0 1 5.469 9.891.814.814 0 0 0 .389.487 21.61 21.61 0 0 1 12.482 12.274 20.735 20.735 0 0 1 1.535 10.209 21.654 21.654 0 0 1-1.21 5.336.465.465 0 0 0 .176.643 19.577 19.577 0 0 1-6.858 34.632 20.407 20.407 0 0 1-10.095.065 23.457 23.457 0 0 1-6.543-2.429 2.3 2.3 0 0 0-.252-.1M30.828 117.508a26.046 26.046 0 0 0 6.164-.374 5.547 5.547 0 0 0 .986-.382 1.414 1.414 0 0 0 .774-1.031 18.639 18.639 0 0 1 .547-2.049 1.452 1.452 0 0 1 2.228-.5 1.155 1.155 0 0 1 .243.752c.021 1.742-.014 3.485.02 5.227.026 1.309.133 2.616.2 3.924.037.768-.24 1.061-1.015 1.1-.966.045-1.3-.221-1.5-1.167-.1-.451-.217-.9-.337-1.343a2.323 2.323 0 0 0-2.308-1.848c-1.507-.076-3.018-.082-4.528-.113-.476-.01-.952 0-1.444 0a1.759 1.759 0 0 0-.049.3q.08 4.277.164 8.554a.678.678 0 0 0 .536.716 8.85 8.85 0 0 0 1.449.255c.922.064 1.85.052 2.772.113.893.06 1.3.488 1.242 1.218-.048.585-.353.883-1.022.89-1.264.014-2.528-.019-3.792-.016q-5.689.012-11.377.038c-.945 0-1.251-.293-1.183-1.2a.943.943 0 0 1 1-.938c.722-.053 1.449-.049 2.171-.1a7.635 7.635 0 0 0 1.231-.182c.612-.145.771-.351.777-.966.048-4.81.1-9.619.126-14.429.008-1.726-.061-3.453-.111-5.178-.028-.98-.333-1.336-1.311-1.448-.825-.094-1.659-.1-2.49-.151-.138-.008-.278 0-.416-.013a1.085 1.085 0 1 1 .08-2.169c3.977.029 7.954.089 11.931.087 4.116 0 8.232-.073 12.348-.095 1.633-.009 1.618.02 2.24 1.542.489 1.2 1.024 2.374 1.53 3.564.183.429.491.87.062 1.323a1.673 1.673 0 0 1-1.666.141 7.528 7.528 0 0 1-.837-.573q-1.95-1.4-3.9-2.809a5.683 5.683 0 0 0-3.586-1c-2.373.061-4.745.155-7.118.222a.639.639 0 0 0-.7.587 9.563 9.563 0 0 0-.146 1.375c-.015 2.606-.01 5.211-.011 7.817 0 .09.012.179.023.336M54.697 123.174c.352.744.669 1.5 1.056 2.213a7.823 7.823 0 0 0 5.916 4.124 11.7 11.7 0 0 0 5.669-.277 7.14 7.14 0 0 0 1.877-.958 3.146 3.146 0 0 0 .621-4.543 11.891 11.891 0 0 0-3.733-3.055c-1.944-1.062-3.946-2.017-5.92-3.026a25.421 25.421 0 0 1-4.763-2.906 5.192 5.192 0 0 1-2.043-3.044 4.332 4.332 0 0 1 1.692-4.334 10.669 10.669 0 0 1 4.784-2.076 31.215 31.215 0 0 1 11.943-.055 16.3 16.3 0 0 1 1.7.4 1.417 1.417 0 0 1 1.047 1.37c.1 1.2.225 2.393.344 3.589a1.2 1.2 0 0 1-1.186 1.522c-.487.061-.979.072-1.5.107-.117-.4-.218-.766-.332-1.128a5.443 5.443 0 0 0-5.189-4.076 10.308 10.308 0 0 0-4.681.575 5.52 5.52 0 0 0-1.562.953 2.123 2.123 0 0 0-.2 3.17 8.707 8.707 0 0 0 2.183 1.671c1.842.991 3.744 1.872 5.624 2.793a28.263 28.263 0 0 1 6.712 4.207 9.388 9.388 0 0 1 1.133 1.216 4.807 4.807 0 0 1-.157 6.392 10.005 10.005 0 0 1-4.8 2.99 21.726 21.726 0 0 1-6.417.979 45.018 45.018 0 0 1-9.5-.958 1.922 1.922 0 0 1-1.667-1.657c-.313-1.491-.708-2.964-1.047-4.45-.241-1.055.139-1.595 1.211-1.724a9.716 9.716 0 0 1 1.173-.008M108.214 129.138a19.57 19.57 0 0 1-6.243 2.355 25.368 25.368 0 0 1-11.81-.4 14.469 14.469 0 0 1-8.418-5.96 11.664 11.664 0 0 1 2.389-15.616 19.739 19.739 0 0 1 9.3-4.264 36.679 36.679 0 0 1 12.558-.074 2.877 2.877 0 0 1 .662.2 1.108 1.108 0 0 1 .752 1.1q-.009 2.221 0 4.441a.826.826 0 0 1-.708.892c-.491.1-1 .113-1.526.167-.074-.431-.115-.8-.2-1.154a4.3 4.3 0 0 0-3.386-3.423 14.05 14.05 0 0 0-12.166 2.445 8.564 8.564 0 0 0-3.259 5.873 12.374 12.374 0 0 0 1.517 8.249 10.872 10.872 0 0 0 8.05 5.253 18.185 18.185 0 0 0 10.045-1.3c.933-.4 1.034-.378 1.7.374l.74.834M96.011 8.378a6.978 6.978 0 1 1 6.97 6.949 6.96 6.96 0 0 1-6.97-6.949m3.641 4.046c.13.074.266.138.387.223a5.187 5.187 0 0 0 5.707.109c.139-.091.266-.2.4-.3a5.878 5.878 0 0 0-1.344-.075.483.483 0 0 1-.5-.3 50.15 50.15 0 0 0-1.344-2.208 1.128 1.128 0 0 0-1.415-.435v2.907l-1.892.083a4.853 4.853 0 0 0 .071-.588q.008-3.353 0-6.706v-.588c1.484.052 2.916.049 4.337.17a2.05 2.05 0 0 1 1.832 1.705 2.328 2.328 0 0 1-1.035 2.356c-.133.086-.271.166-.36.22l2.034 3.053a.332.332 0 0 0 .1-.03 1.347 1.347 0 0 0 .132-.128 4.99 4.99 0 0 0 1.329-4.479 5.2 5.2 0 1 0-8.766 4.641c.116.115.215.249.322.374m1.935-4.7a17.959 17.959 0 0 0 1.927-.175c.193-.037.407-.347.474-.572a.476.476 0 0 0-.4-.62c-.657-.09-1.321-.129-2-.191Z"/></g></svg>