<svg xmlns="http://www.w3.org/2000/svg" width="112.487" height="24.695"><defs><clipPath id="a"><path transform="translate(-3 -3)" style="fill:none" d="M0 0h112.487v24.695H0z"/></clipPath></defs><g style="clip-path:url(#a)" transform="translate(3 3)"><path d="m10.4.631 2.3 4.67a.864.864 0 0 0 .651.473l5.154.749a.865.865 0 0 1 .479 1.475l-3.73 3.635a.865.865 0 0 0-.249.765l.88 5.133a.865.865 0 0 1-1.254.911l-4.61-2.423a.864.864 0 0 0-.8 0l-4.61 2.423a.865.865 0 0 1-1.255-.911l.88-5.133a.865.865 0 0 0-.249-.765L.262 7.998a.865.865 0 0 1 .479-1.474L5.9 5.775a.864.864 0 0 0 .651-.473l2.3-4.67a.865.865 0 0 1 1.551 0M32.173.631l2.3 4.67a.864.864 0 0 0 .651.473l5.154.749a.865.865 0 0 1 .479 1.475l-3.73 3.635a.865.865 0 0 0-.249.765l.88 5.133a.865.865 0 0 1-1.254.911l-4.607-2.422a.864.864 0 0 0-.8 0l-4.61 2.423a.865.865 0 0 1-1.255-.911l.88-5.133a.865.865 0 0 0-.249-.765l-3.729-3.635a.865.865 0 0 1 .479-1.475l5.154-.749a.864.864 0 0 0 .651-.473l2.3-4.67a.865.865 0 0 1 1.551 0M53.944.631l2.3 4.67a.864.864 0 0 0 .651.473l5.154.749a.865.865 0 0 1 .479 1.475l-3.73 3.635a.865.865 0 0 0-.249.765l.88 5.133a.865.865 0 0 1-1.254.911l-4.61-2.423a.864.864 0 0 0-.8 0l-4.61 2.423a.865.865 0 0 1-1.255-.911l.881-5.133a.865.865 0 0 0-.249-.765l-3.728-3.635a.865.865 0 0 1 .479-1.475l5.154-.749a.864.864 0 0 0 .651-.473l2.3-4.67a.865.865 0 0 1 1.551 0M75.715.631l2.3 4.67a.864.864 0 0 0 .651.473l5.154.749a.865.865 0 0 1 .479 1.475l-3.73 3.635a.866.866 0 0 0-.249.765l.881 5.133a.865.865 0 0 1-1.254.911l-4.61-2.423a.864.864 0 0 0-.8 0l-4.61 2.423a.865.865 0 0 1-1.255-.911l.88-5.133a.865.865 0 0 0-.249-.765l-3.73-3.635a.865.865 0 0 1 .479-1.475l5.154-.749a.864.864 0 0 0 .651-.473l2.3-4.67a.865.865 0 0 1 1.551 0"/><path d="m590.7 1.481 2.3 4.67a.864.864 0 0 0 .651.473l5.154.749a.865.865 0 0 1 .479 1.475l-3.729 3.635a.865.865 0 0 0-.249.765l.88 5.133a.865.865 0 0 1-1.254.911l-4.61-2.423a.864.864 0 0 0-.8 0l-4.61 2.423a.865.865 0 0 1-1.255-.911l.88-5.133a.865.865 0 0 0-.249-.765l-3.729-3.635a.865.865 0 0 1 .479-1.475l5.154-.749a.864.864 0 0 0 .651-.473l2.3-4.67a.865.865 0 0 1 1.557 0Z" transform="translate(-493.212 -.85)" style="stroke:#000;stroke-miterlimit:10;stroke-width:2px;fill:none"/><path d="M96.688 15.921a.863.863 0 0 0-.377.1l-4.61 2.424a.864.864 0 0 1-1.254-.912l.88-5.133a.864.864 0 0 0-.249-.765L87.349 8a.865.865 0 0 1 .479-1.475l5.154-.749a.865.865 0 0 0 .651-.473l2.3-4.67a.854.854 0 0 1 .778-.483Z"/></g></svg>