<svg xmlns="http://www.w3.org/2000/svg" width="162.11" height="28.043"><defs><clipPath id="a"><path style="fill:none" d="M0 0h162.11v28.043H0z"/></clipPath></defs><g style="clip-path:url(#a)"><path d="m15.857.734 3.514 7.12a1.318 1.318 0 0 0 .992.721l7.857 1.142a1.318 1.318 0 0 1 .73 2.248l-5.686 5.542a1.319 1.319 0 0 0-.379 1.167l1.344 7.826a1.318 1.318 0 0 1-1.912 1.389l-7.028-3.695a1.317 1.317 0 0 0-1.227 0l-7.027 3.694A1.318 1.318 0 0 1 5.122 26.5l1.342-7.825a1.319 1.319 0 0 0-.379-1.167L.4 11.965a1.318 1.318 0 0 1 .73-2.248l7.857-1.142a1.318 1.318 0 0 0 .992-.721l3.514-7.12a1.318 1.318 0 0 1 2.364 0M49.047.734l3.514 7.12a1.317 1.317 0 0 0 .992.721l7.857 1.142a1.318 1.318 0 0 1 .73 2.248l-5.686 5.542a1.319 1.319 0 0 0-.379 1.167l1.341 7.826a1.318 1.318 0 0 1-1.912 1.389l-7.028-3.695a1.317 1.317 0 0 0-1.227 0l-7.028 3.695a1.318 1.318 0 0 1-1.905-1.389l1.342-7.825a1.319 1.319 0 0 0-.379-1.167l-5.686-5.542a1.318 1.318 0 0 1 .731-2.248l7.857-1.142a1.317 1.317 0 0 0 .992-.721l3.514-7.12a1.318 1.318 0 0 1 2.364 0M82.236.734l3.514 7.12a1.317 1.317 0 0 0 .992.721l7.857 1.142a1.318 1.318 0 0 1 .731 2.248l-5.686 5.542a1.318 1.318 0 0 0-.379 1.167l1.342 7.825a1.318 1.318 0 0 1-1.912 1.389l-7.028-3.695a1.318 1.318 0 0 0-1.227 0l-7.027 3.695a1.318 1.318 0 0 1-1.912-1.388l1.342-7.825a1.319 1.319 0 0 0-.379-1.167l-5.686-5.542a1.318 1.318 0 0 1 .73-2.248l7.857-1.142a1.317 1.317 0 0 0 .992-.721l3.514-7.12a1.318 1.318 0 0 1 2.364 0M115.426.734l3.514 7.12a1.318 1.318 0 0 0 .992.721l7.857 1.142a1.318 1.318 0 0 1 .731 2.248l-5.686 5.542a1.319 1.319 0 0 0-.379 1.167l1.342 7.825a1.318 1.318 0 0 1-1.912 1.389l-7.028-3.695a1.317 1.317 0 0 0-1.227 0l-7.028 3.695a1.318 1.318 0 0 1-1.913-1.389l1.342-7.825a1.319 1.319 0 0 0-.379-1.167l-5.686-5.542a1.318 1.318 0 0 1 .731-2.248l7.857-1.142a1.317 1.317 0 0 0 .992-.721l3.514-7.12a1.318 1.318 0 0 1 2.364 0M148.616.734l3.514 7.12a1.318 1.318 0 0 0 .993.721l7.857 1.142a1.318 1.318 0 0 1 .73 2.248l-5.686 5.542a1.319 1.319 0 0 0-.379 1.167l1.342 7.825a1.318 1.318 0 0 1-1.912 1.389l-7.028-3.695a1.317 1.317 0 0 0-1.227 0l-7.028 3.695a1.318 1.318 0 0 1-1.912-1.389l1.342-7.825a1.318 1.318 0 0 0-.379-1.167l-5.68-5.542a1.318 1.318 0 0 1 .731-2.248l7.857-1.142a1.318 1.318 0 0 0 .992-.721l3.51-7.12a1.318 1.318 0 0 1 2.364 0"/></g></svg>