<svg xmlns="http://www.w3.org/2000/svg" width="196.824" height="142.978"><defs><clipPath id="a"><path style="fill:none" d="M0 0h196.824v142.977H0z"/></clipPath><style>.d{fill:none}.c{fill:#fff}.d{stroke:#000;stroke-linecap:round;stroke-linejoin:round;stroke-width:9px}</style></defs><g style="clip-path:url(#a)"><path class="c" d="m118.012 22.95 45.3 1.022 29.974 37.81v57.224l-77.321-1.022"/><path class="d" d="m118.012 22.95 45.3 1.022 29.974 37.81v57.224l-77.321-1.022"/><path class="c" d="M4.926 6.26a784.96 784.96 0 0 0 1.362 112.406q26.186.481 53.478.341 28.709-.16 56.2-1.022 1.074-33.077 1.363-67.444.174-22.063 0-43.6A518.289 518.289 0 0 0 4.926 6.26"/><path class="d" d="M4.926 6.26a784.96 784.96 0 0 0 1.362 112.406q26.186.481 53.478.341 28.709-.16 56.2-1.022 1.074-33.077 1.363-67.444.174-22.063 0-43.6A518.289 518.289 0 0 0 4.926 6.26ZM177.284 43.388l-32.019-.341a75.8 75.8 0 0 0-1.022 27.25 290.551 290.551 0 0 0 49.05 0"/><path class="c" d="M67.26 118.665a20.779 20.779 0 1 1-20.778-20.778 20.779 20.779 0 0 1 20.778 20.778"/><circle class="d" cx="20.778" cy="20.778" transform="translate(25.703 97.887)" r="20.778"/><path class="c" d="M175.578 118.665A20.778 20.778 0 1 1 154.8 97.887a20.779 20.779 0 0 1 20.778 20.778"/><circle class="d" cx="20.778" cy="20.778" transform="translate(134.022 97.887)" r="20.778"/></g></svg>