<svg xmlns="http://www.w3.org/2000/svg" width="139.309" height="24.458"><defs><clipPath id="a"><path style="fill:none" d="M0 0h139.309v24.458H0z"/></clipPath></defs><g style="clip-path:url(#a)"><path d="m13.608.827 3.015 6.11a1.131 1.131 0 0 0 .852.619l6.743.98a1.131 1.131 0 0 1 .627 1.929l-4.879 4.756a1.132 1.132 0 0 0-.325 1l1.152 6.715a1.131 1.131 0 0 1-1.641 1.192l-6.031-3.17a1.13 1.13 0 0 0-1.053 0l-6.031 3.17A1.131 1.131 0 0 1 4.4 22.937l1.152-6.715a1.132 1.132 0 0 0-.325-1L.343 10.465a1.131 1.131 0 0 1 .627-1.93l6.743-.98a1.131 1.131 0 0 0 .852-.619L11.58.826a1.131 1.131 0 0 1 2.029 0M42.089.827l3.018 6.11a1.131 1.131 0 0 0 .852.619l6.743.98a1.131 1.131 0 0 1 .627 1.929l-4.879 4.756a1.132 1.132 0 0 0-.325 1l1.152 6.715a1.131 1.131 0 0 1-1.641 1.192l-6.031-3.17a1.13 1.13 0 0 0-1.053 0l-6.031 3.17a1.131 1.131 0 0 1-1.641-1.192l1.152-6.715a1.132 1.132 0 0 0-.325-1l-4.879-4.756a1.131 1.131 0 0 1 .627-1.929l6.743-.98a1.131 1.131 0 0 0 .852-.619l3.015-6.11a1.131 1.131 0 0 1 2.029 0M70.571.827l3.015 6.11a1.131 1.131 0 0 0 .852.619l6.743.98a1.131 1.131 0 0 1 .627 1.929l-4.879 4.756a1.132 1.132 0 0 0-.325 1l1.152 6.715a1.131 1.131 0 0 1-1.641 1.192l-6.031-3.17a1.131 1.131 0 0 0-1.053 0l-6.03 3.17a1.131 1.131 0 0 1-1.641-1.192l1.152-6.715a1.132 1.132 0 0 0-.325-1l-4.879-4.756a1.131 1.131 0 0 1 .627-1.929l6.743-.98a1.131 1.131 0 0 0 .852-.619l3.015-6.11a1.131 1.131 0 0 1 2.029 0M99.052.827l3.015 6.11a1.131 1.131 0 0 0 .852.619l6.743.98a1.131 1.131 0 0 1 .627 1.929l-4.879 4.756a1.132 1.132 0 0 0-.325 1l1.152 6.715a1.131 1.131 0 0 1-1.641 1.192l-6.031-3.17a1.13 1.13 0 0 0-1.053 0l-6.031 3.17a1.131 1.131 0 0 1-1.641-1.192l1.152-6.715a1.132 1.132 0 0 0-.325-1l-4.879-4.756a1.131 1.131 0 0 1 .627-1.929l6.743-.98a1.131 1.131 0 0 0 .852-.619l3.012-6.11a1.131 1.131 0 0 1 2.029 0"/><path d="m593.9 1.63 3.015 6.11a1.131 1.131 0 0 0 .852.619l6.743.98a1.131 1.131 0 0 1 .627 1.929l-4.879 4.756a1.132 1.132 0 0 0-.325 1l1.152 6.715a1.131 1.131 0 0 1-1.641 1.192l-6.031-3.17a1.131 1.131 0 0 0-1.053 0l-6.031 3.17a1.131 1.131 0 0 1-1.641-1.192l1.152-6.715a1.131 1.131 0 0 0-.325-1l-4.879-4.756a1.131 1.131 0 0 1 .627-1.929l6.743-.98a1.13 1.13 0 0 0 .852-.619l3.015-6.11a1.131 1.131 0 0 1 2.027 0Z" transform="translate(-466.37 -.803)" style="stroke:#000;stroke-miterlimit:10;stroke-width:2px;fill:none"/><path d="M126.487 20.829a1.13 1.13 0 0 0-.493.129l-6.031 3.171a1.131 1.131 0 0 1-1.641-1.192l1.152-6.715a1.13 1.13 0 0 0-.325-1l-4.879-4.756a1.131 1.131 0 0 1 .627-1.929l6.743-.98a1.132 1.132 0 0 0 .852-.619l3.015-6.11a1.117 1.117 0 0 1 1.013-.632Z"/></g></svg>