<svg xmlns="http://www.w3.org/2000/svg" width="158.475" height="150.437"><defs><clipPath id="a"><path style="fill:none" d="M0 0h158.475v150.437H0z"/></clipPath><style>.d{fill:none}.c{fill:#fff}.d{stroke:#000;stroke-linecap:round;stroke-linejoin:round;stroke-width:9px}</style></defs><g style="clip-path:url(#a)"><path class="c" d="M5.791 135.808c-7.394-13.735 7.317-35.923 18.024-46.562 21.034-20.901 49.322-19.792 56.076-19.528 2.592.1 42.476 2.3 63.585 34.046 4.683 7.042 15.332 23.059 9.513 34.046-4.474 8.45-16.371 9.55-72.6 8.512-61.294-1.132-70.485-2.872-74.6-10.514"/><path class="d" d="M5.791 135.808c-7.394-13.735 7.317-35.923 18.024-46.562 21.034-20.901 49.322-19.792 56.076-19.528 2.592.1 42.476 2.3 63.585 34.046 4.683 7.042 15.332 23.059 9.513 34.046-4.474 8.45-16.371 9.55-72.6 8.512-61.292-1.132-70.483-2.872-74.598-10.514Z"/><path class="c" d="M117.22 41.879A38.089 38.089 0 1 1 79.13 3.791a38.089 38.089 0 0 1 38.09 38.088"/><circle class="d" cx="38.089" cy="38.089" transform="translate(41.041 3.79)" r="38.089"/></g></svg>