<svg xmlns="http://www.w3.org/2000/svg" width="45.976" height="44"><defs><style>.a{fill:#140902;fill-rule:evenodd}</style></defs><path class="a" d="M17.86 33.994a4.929 4.929 0 0 0-5 5 4.939 4.939 0 1 0 9.878 0 4.9 4.9 0 0 0-4.878-5Zm0 7.825a2.887 2.887 0 1 1 2.825-2.825 2.847 2.847 0 0 1-2.825 2.825ZM44.93 6.8H9.91C9.012 2.437 5.292 0 1.058 0a1.027 1.027 0 1 0 0 2.052 6.763 6.763 0 0 1 6.8 5.516l3.464 20.14a6.177 6.177 0 0 0 6.028 5.132h20.91a1.091 1.091 0 0 0 0-2.181H17.35a3.785 3.785 0 0 1-3.977-3.207l-.257-1.411h23.09a6.172 6.172 0 0 0 6.029-4.746l3.72-12.956A1.331 1.331 0 0 0 44.93 6.8Zm-4.618 14.11a4.272 4.272 0 0 1-4.1 3.079h-23.48c-.9-5.388-1.8-10.262-2.566-15.137h33.353c-1.026 3.976-2.053 7.568-3.207 12.058ZM32.359 33.994a4.9 4.9 0 0 0-4.875 5 4.939 4.939 0 1 0 9.878 0 4.929 4.929 0 0 0-5.003-5Zm0 7.825a2.847 2.847 0 0 1-2.823-2.825 2.887 2.887 0 1 1 2.822 2.822Z"/></svg>